<?xml version="1.0" encoding="UTF-8"?>
<svg xmlns="http://www.w3.org/2000/svg" width="4800" height="6912" viewBox="0 0 4800 6912" shape-rendering="geometricPrecision">
  <path id="path1" d="M 1696.6596,189.1788 2482.8237,163.0602 2399.9916,814.0127 Z" fill="#18110b" />
  <path id="path2" d="M 1696.6596,189.1788 1586.6503,804.9763 954.499,376.5299 Z" fill="#17100a" />
  <path id="path3" d="M 2399.9916,814.0127 2482.8237,163.0602 3279.7206,212.2838 Z" fill="#050000" />
  <path id="path4" d="M 2399.9916,814.0127 3279.7206,212.2838 3119.268,676.392 Z" fill="#040000" />
  <path id="path5" d="M 4379.2774,975.2497 4403.0653,1440.7618 3770.738,1416.7553 Z" fill="#040001" />
  <path id="path6" d="M 4379.2774,975.2497 3770.738,1416.7553 3773.9577,842.145 Z" fill="#040100" />
  <path id="path7" d="M 2399.9916,814.0127 3119.268,676.392 3773.9577,842.145 Z" fill="#040101" />
  <path id="path8" d="M 2399.9916,814.0127 3773.9577,842.145 3191.1765,1197.7606 Z" fill="#050001" />
  <path id="path9" d="M 2399.9916,814.0127 1586.6503,804.9763 1696.6596,189.1788 Z" fill="#060600" />
  <path id="path10" d="M 3279.7206,212.2838 3948.8994,473.4703 3773.9577,842.145 Z" fill="#000000" />
  <path id="path11" d="M 3279.7206,212.2838 3773.9577,842.145 3119.268,676.392 Z" fill="#110b0b" />
  <path id="path12" d="M 399.6227,872.2819 954.499,376.5299 1586.6503,804.9763 Z" fill="#211c17" />
  <path id="path13" d="M 399.6227,872.2819 1586.6503,804.9763 929.814,1332.3722 Z" fill="#28211b" />
  <path id="path14" d="M 929.814,1332.3722 157.0655,1324.3356 399.6227,872.2819 Z" fill="#251f19" />
  <path id="path15" d="M 3948.8994,473.4703 4379.2774,975.2497 3773.9577,842.145 Z" fill="#100a0a" />
  <path id="path16" d="M 1586.6503,804.9763 2399.9916,814.0127 1666.0717,1442.874 Z" fill="#372a25" />
  <path id="path17" d="M 1586.6503,804.9763 1666.0717,1442.874 929.814,1332.3722 Z" fill="#3d312a" />
  <path id="path18" d="M 2399.9916,814.0127 3191.1765,1197.7606 2425.9408,1460.9562 Z" fill="#251912" />
  <path id="path19" d="M 2399.9916,814.0127 2425.9408,1460.9562 1666.0717,1442.874 Z" fill="#3d3131" />
  <path id="path20" d="M 3770.738,1416.7553 3191.1765,1197.7606 3773.9577,842.145 Z" fill="#190c06" />
  <path id="path21" d="M 4379.2774,975.2497 4593.9286,1802.5074 4403.0653,1440.7618 Z" fill="#000001" />
  <path id="path22" d="M 3191.1765,1197.7606 3770.738,1416.7553 3665.5577,1820.5898 Z" fill="#7a533d" />
  <path id="path23" d="M 3191.1765,1197.7606 2920.7145,1749.2659 2425.9408,1460.9562 Z" fill="#7c5643" />
  <path id="path24" d="M 3191.1765,1197.7606 3665.5577,1820.5898 2920.7145,1749.2659 Z" fill="#ae7f64" />
  <path id="path25" d="M 157.0655,1324.3356 499.9726,2139.0366 27.2009,2046.6167 Z" fill="#2b1f19" />
  <path id="path26" d="M 157.0655,1324.3356 848.2461,1894.9276 499.9726,2139.0366 Z" fill="#4b3620" />
  <path id="path27" d="M 157.0655,1324.3356 929.814,1332.3722 848.2461,1894.9276 Z" fill="#382b1f" />
  <path id="path28" d="M 929.814,1332.3722 1666.0717,1442.874 1233.5471,2039.5848 Z" fill="#4b3225" />
  <path id="path29" d="M 929.814,1332.3722 1233.5471,2039.5848 848.2461,1894.9276 Z" fill="#5d3e31" />
  <path id="path30" d="M 4403.0653,1440.7618 4050.8511,1731.9378 3770.738,1416.7553 Z" fill="#25180c" />
  <path id="path31" d="M 3770.738,1416.7553 4050.8511,1731.9378 3665.5577,1820.5898 Z" fill="#87634a" />
  <path id="path32" d="M 1666.0717,1442.874 2425.9408,1460.9562 1856.0389,1859.7678 Z" fill="#573e2b" />
  <path id="path33" d="M 4403.0653,1440.7618 4593.9286,1802.5074 4050.8511,1731.9378 Z" fill="#0c0600" />
  <path id="path34" d="M 1666.0717,1442.874 1856.0389,1859.7678 1233.5471,2039.5848 Z" fill="#966a4e" />
  <path id="path35" d="M 2425.9408,1460.9562 2920.7145,1749.2659 2407.6954,2108.8996 Z" fill="#dcad91" />
  <path id="path36" d="M 2425.9408,1460.9562 2407.6954,2108.8996 1856.0389,1859.7678 Z" fill="#c99b80" />
  <path id="path37" d="M 4050.8511,1731.9378 4593.9286,1802.5074 4011.1472,2118.945 Z" fill="#574332" />
  <path id="path38" d="M 4050.8511,1731.9378 4011.1472,2118.945 3665.5577,1820.5898 Z" fill="#bc8667" />
  <path id="path39" d="M 2407.6954,2108.8996 2920.7145,1749.2659 3209.9586,2304.7894 Z" fill="#efbc9d" />
  <path id="path40" d="M 3209.9586,2304.7894 2662.0585,2563.9668 2407.6954,2108.8996 Z" fill="#eebc9d" />
  <path id="path41" d="M 2920.7145,1749.2659 3665.5577,1820.5898 3209.9586,2304.7894 Z" fill="#eabea0" />
  <path id="path42" d="M 4593.9286,1802.5074 4610.3279,2100.0971 4011.1472,2118.945 Z" fill="#31251e" />
  <path id="path43" d="M 3665.5577,1820.5898 4011.1472,2118.945 3658.0455,2468.5333 Z" fill="#d2a48a" />
  <path id="path44" d="M 3665.5577,1820.5898 3658.0455,2468.5333 3209.9586,2304.7894 Z" fill="#e3b196" />
  <path id="path45" d="M 1856.0389,1859.7678 1617.7747,2200.3148 1233.5471,2039.5848 Z" fill="#d7a98f" />
  <path id="path46" d="M 1856.0389,1859.7678 2407.6954,2108.8996 1986.4403,2552.9166 Z" fill="#f5c3a0" />
  <path id="path47" d="M 1856.0389,1859.7678 1986.4403,2552.9166 1617.7747,2200.3148 Z" fill="#f0bd9d" />
  <path id="path48" d="M 848.2461,1894.9276 1233.5471,2039.5848 831.0739,2403.2368 Z" fill="#d2a383" />
  <path id="path49" d="M 848.2461,1894.9276 831.0739,2403.2368 499.9726,2139.0366 Z" fill="#c6997e" />
  <path id="path50" d="M 1233.5471,2039.5848 1617.7747,2200.3148 1245.3529,2497.6657 Z" fill="#e5b696" />
  <path id="path51" d="M 1233.5471,2039.5848 1245.3529,2497.6657 831.0739,2403.2368 Z" fill="#ddab91" />
  <path id="path52" d="M 36.8601,2696.5693 27.2009,2046.6167 499.9726,2139.0366 Z" fill="#372418" />
  <path id="path53" d="M 499.9726,2139.0366 350.2527,2730.2221 36.8601,2696.5693 Z" fill="#362317" />
  <path id="path54" d="M 2662.0585,2563.9668 1986.4403,2552.9166 2407.6954,2108.8996 Z" fill="#f5bf9f" />
  <path id="path55" d="M 4011.1472,2118.945 4610.3279,2100.0971 4253.706,2587.0724 Z" fill="#513e31" />
  <path id="path56" d="M 4011.1472,2118.945 4253.706,2587.0724 3658.0455,2468.5333 Z" fill="#ba8a70" />
  <path id="path57" d="M 499.9726,2139.0366 831.0739,2403.2368 350.2527,2730.2221 Z" fill="#ae8564" />
  <path id="path58" d="M 4610.3279,2100.0971 4614.3225,2490.6358 4253.706,2587.0724 Z" fill="#2a2418" />
  <path id="path59" d="M 1617.7747,2200.3148 1986.4403,2552.9166 1245.3529,2497.6657 Z" fill="#f5c4ab" />
  <path id="path60" d="M 2988.3304,3012.0019 3209.9586,2304.7894 3658.0455,2468.5333 Z" fill="#e5b39f" />
  <path id="path61" d="M 3658.0455,2468.5333 3416.5615,2922.5961 2988.3304,3012.0019 Z" fill="#e3b19c" />
  <path id="path62" d="M 3209.9586,2304.7894 2988.3304,3012.0019 2662.0585,2563.9668 Z" fill="#efbea5" />
  <path id="path63" d="M 831.0739,2403.2368 1245.3529,2497.6657 898.6894,2895.4729 Z" fill="#d9ab8c" />
  <path id="path64" d="M 831.0739,2403.2368 898.6894,2895.4729 350.2527,2730.2221 Z" fill="#c69075" />
  <path id="path65" d="M 3658.0455,2468.5333 4253.706,2587.0724 3811.5218,2992.9154 Z" fill="#c6937d" />
  <path id="path66" d="M 3658.0455,2468.5333 3811.5218,2992.9154 3416.5615,2922.5961 Z" fill="#cc9d88" />
  <path id="path67" d="M 4614.3225,2490.6358 4584.807,2719.6742 4253.706,2587.0724 Z" fill="#241811" />
  <path id="path68" d="M 1245.3529,2497.6657 1340.8733,2902.5048 898.6894,2895.4729 Z" fill="#d8aa90" />
  <path id="path69" d="M 1245.3529,2497.6657 1986.4403,2552.9166 1340.8733,2902.5048 Z" fill="#eab89d" />
  <path id="path70" d="M 1986.4403,2552.9166 2662.0585,2563.9668 2399.9916,2917.6374 Z" fill="#f5b89e" />
  <path id="path71" d="M 1986.4403,2552.9166 1720.363,3053.7659 1340.8733,2902.5048 Z" fill="#e5b399" />
  <path id="path72" d="M 1986.4403,2552.9166 2399.9916,2917.6374 1720.363,3053.7659 Z" fill="#efb79d" />
  <path id="path73" d="M 2662.0585,2563.9668 2988.3304,3012.0019 2399.9916,2917.6374 Z" fill="#efb9a5" />
  <path id="path74" d="M 4253.706,2587.0724 4584.807,2719.6742 4332.0539,2959.7648 Z" fill="#1f1206" />
  <path id="path75" d="M 4253.706,2587.0724 4332.0539,2959.7648 3811.5218,2992.9154 Z" fill="#b88868" />
  <path id="path76" d="M 36.8601,2696.5693 350.2527,2730.2221 168.2764,3075.5127 Z" fill="#1e1105" />
  <path id="path77" d="M 4584.807,2719.6742 4553.1458,2900.4956 4332.0539,2959.7648 Z" fill="#120b05" />
  <path id="path78" d="M 350.2527,2730.2221 355.988,3041.3985 168.2764,3075.5127 Z" fill="#180b05" />
  <path id="path79" d="M 350.2527,2730.2221 898.6894,2895.4729 546.5161,3078.1874 Z" fill="#a07255" />
  <path id="path80" d="M 350.2527,2730.2221 546.5161,3078.1874 355.988,3041.3985 Z" fill="#9d7653" />
  <path id="path81" d="M 2399.9916,2917.6374 2988.3304,3012.0019 2598.3014,3275.0009 Z" fill="#d2a48b" />
  <path id="path82" d="M 898.6894,2895.4729 1340.8733,2902.5048 1092.7696,3223.1227 Z" fill="#6d4e3e" />
  <path id="path83" d="M 898.6894,2895.4729 968.8952,3274.0179 546.5161,3078.1874 Z" fill="#71533c" />
  <path id="path84" d="M 2399.9916,2917.6374 2598.3014,3275.0009 2143.6086,3274.1936 Z" fill="#e7a995" />
  <path id="path85" d="M 4553.1458,2900.4956 4479.6339,3089.5572 4332.0539,2959.7648 Z" fill="#1e110b" />
  <path id="path86" d="M 898.6894,2895.4729 1092.7696,3223.1227 968.8952,3274.0179 Z" fill="#7b5b49" />
  <path id="path87" d="M 1340.8733,2902.5048 1720.363,3053.7659 1408.6884,3199.2023 Z" fill="#563425" />
  <path id="path88" d="M 2399.9916,2917.6374 2143.6086,3274.1936 1720.363,3053.7659 Z" fill="#d5a58c" />
  <path id="path89" d="M 1340.8733,2902.5048 1294.8393,3195.2505 1182.7341,3216.2864 Z" fill="#4a2e20" />
  <path id="path90" d="M 1340.8733,2902.5048 1408.6884,3199.2023 1294.8393,3195.2505 Z" fill="#4b3223" />
  <path id="path91" d="M 1340.8733,2902.5048 1182.7341,3216.2864 1092.7696,3223.1227 Z" fill="#533627" />
  <path id="path92" d="M 3416.5615,2922.5961 3353.298,3230.1737 2988.3304,3012.0019 Z" fill="#5c3e2e" />
  <path id="path93" d="M 3416.5615,2922.5961 3811.5218,2992.9154 3530.8667,3274.4858 Z" fill="#6d503b" />
  <path id="path94" d="M 3416.5615,2922.5961 3530.8667,3274.4858 3353.298,3230.1737 Z" fill="#4f3628" />
  <path id="path95" d="M 4332.0539,2959.7648 4101.5428,3125.7903 3811.5218,2992.9154 Z" fill="#a57052" />
  <path id="path96" d="M 4332.0539,2959.7648 4479.6339,3089.5572 4364.0044,3232.3112 Z" fill="#25120c" />
  <path id="path97" d="M 4332.0539,2959.7648 4364.0044,3232.3112 4101.5428,3125.7903 Z" fill="#9d6f53" />
  <path id="path98" d="M 3811.5218,2992.9154 4101.5428,3125.7903 3800.5856,3442.0759 Z" fill="#886550" />
  <path id="path99" d="M 3811.5218,2992.9154 3800.5856,3442.0759 3658.8049,3334.9773 Z" fill="#825e4f" />
  <path id="path100" d="M 3811.5218,2992.9154 3658.8049,3334.9773 3530.8667,3274.4858 Z" fill="#7b5c4a" />
  <path id="path101" d="M 2988.3304,3012.0019 3048.86,3332.0851 2598.3014,3275.0009 Z" fill="#704a34" />
  <path id="path102" d="M 2988.3304,3012.0019 3217.0261,3261.0799 3048.86,3332.0851 Z" fill="#4f3324" />
  <path id="path103" d="M 2988.3304,3012.0019 3353.298,3230.1737 3217.0261,3261.0799 Z" fill="#462e1f" />
  <path id="path104" d="M 355.988,3041.3985 280.6058,3262.4978 168.2764,3075.5127 Z" fill="#3e2519" />
  <path id="path105" d="M 355.988,3041.3985 546.5161,3078.1874 280.6058,3262.4978 Z" fill="#946947" />
  <path id="path106" d="M 1720.363,3053.7659 2143.6086,3274.1936 1746.885,3432.6193 Z" fill="#805134" />
  <path id="path107" d="M 1720.363,3053.7659 1746.885,3432.6193 1594.8149,3321.9098 Z" fill="#6f432e" />
  <path id="path108" d="M 1720.363,3053.7659 1493.4933,3254.2452 1408.6884,3199.2023 Z" fill="#502c1b" />
  <path id="path109" d="M 1720.363,3053.7659 1594.8149,3321.9098 1493.4933,3254.2452 Z" fill="#593425" />
  <path id="path110" d="M 546.5161,3078.1874 968.8952,3274.0179 803.6031,3381.8161 Z" fill="#7f5946" />
  <path id="path111" d="M 546.5161,3078.1874 803.6031,3381.8161 280.6058,3262.4978 Z" fill="#865f47" />
  <path id="path112" d="M 168.2764,3075.5127 280.6058,3262.4978 21.8345,3256.1111 Z" fill="#a77d64" />
  <path id="path113" d="M 4364.0044,3232.3112 4479.6339,3089.5572 4621.8345,3212.9148 Z" fill="#654231" />
  <path id="path114" d="M 4101.5428,3125.7903 4364.0044,3232.3112 3800.5856,3442.0759 Z" fill="#92694f" />
  <path id="path115" d="M 4621.8345,3212.9148 4616.0689,3509.4801 4364.0044,3232.3112 Z" fill="#906358" />
  <path id="path116" d="M 1092.7696,3223.1227 1131.5503,3318.4026 968.8952,3274.0179 Z" fill="#6b4b3b" />
  <path id="path117" d="M 1092.7696,3223.1227 1182.7341,3216.2864 1131.5503,3318.4026 Z" fill="#623f2e" />
  <path id="path118" d="M 1182.7341,3216.2864 1294.8393,3195.2505 1330.0169,3286.3216 Z" fill="#502f20" />
  <path id="path119" d="M 1294.8393,3195.2505 1408.6884,3199.2023 1330.0169,3286.3216 Z" fill="#533020" />
  <path id="path120" d="M 1182.7341,3216.2864 1330.0169,3286.3216 1245.0189,3405.4265 Z" fill="#5e3724" />
  <path id="path121" d="M 1408.6884,3199.2023 1493.4933,3254.2452 1330.0169,3286.3216 Z" fill="#533724" />
  <path id="path122" d="M 1493.4933,3254.2452 1594.8149,3321.9098 1508.8933,3297.2568 Z" fill="#694735" />
  <path id="path123" d="M 1182.7341,3216.2864 1245.0189,3405.4265 1131.5503,3318.4026 Z" fill="#5e3920" />
  <path id="path124" d="M 3217.0261,3261.0799 3353.298,3230.1737 3373.8376,3343.4938 Z" fill="#4d2e1f" />
  <path id="path125" d="M 3373.8376,3343.4938 3192.5046,3342.7022 3217.0261,3261.0799 Z" fill="#5c3523" />
  <path id="path126" d="M 3373.8376,3343.4938 3353.298,3230.1737 3530.8667,3274.4858 Z" fill="#59371f" />
  <path id="path127" d="M 4364.0044,3232.3112 4616.0689,3509.4801 4339.9466,3663.5052 Z" fill="#865542" />
  <path id="path128" d="M 4364.0044,3232.3112 4339.9466,3663.5052 3800.5856,3442.0759 Z" fill="#ae7c5b" />
  <path id="path129" d="M 21.8345,3256.1111 280.6058,3262.4978 47.6405,3566.9057 Z" fill="#88625b" />
  <path id="path130" d="M 280.6058,3262.4978 803.6031,3381.8161 308.0714,3518.826 Z" fill="#a27765" />
  <path id="path131" d="M 3217.0261,3261.0799 3192.5046,3342.7022 3048.86,3332.0851 Z" fill="#946d5b" />
  <path id="path132" d="M 968.8952,3274.0179 931.9183,3458.3235 803.6031,3381.8161 Z" fill="#633c2c" />
  <path id="path133" d="M 2143.6086,3274.1936 2598.3014,3275.0009 2155.3055,3564.4437 Z" fill="#eab59d" />
  <path id="path134" d="M 968.8952,3274.0179 1131.5503,3318.4026 931.9183,3458.3235 Z" fill="#a18874" />
  <path id="path135" d="M 2598.3014,3275.0009 2909.845,3448.2048 2586.4838,3579.6351 Z" fill="#a66c4e" />
  <path id="path136" d="M 2598.3014,3275.0009 3048.86,3332.0851 2909.845,3448.2048 Z" fill="#96644a" />
  <path id="path137" d="M 3530.8667,3274.4858 3658.8049,3334.9773 3564.5595,3385.966 Z" fill="#a17763" />
  <path id="path138" d="M 2143.6086,3274.1936 2155.3055,3564.4437 1746.885,3432.6193 Z" fill="#b27b54" />
  <path id="path139" d="M 3530.8667,3274.4858 3564.5595,3385.966 3373.8376,3343.4938 Z" fill="#4e2e1c" />
  <path id="path140" d="M 2598.3014,3275.0009 2586.4838,3579.6351 2155.3055,3564.4437 Z" fill="#f4c3ac" />
  <path id="path141" d="M 1330.0169,3286.3216 1508.8933,3297.2568 1403.9476,3405.6562 Z" fill="#543825" />
  <path id="path142" d="M 1330.0169,3286.3216 1403.9476,3405.6562 1245.0189,3405.4265 Z" fill="#59412f" />
  <path id="path143" d="M 1594.8149,3321.9098 1497.2198,3425.5934 1508.8933,3297.2568 Z" fill="#a6917a" />
  <path id="path144" d="M 1746.885,3432.6193 1601.7454,3473.8824 1594.8149,3321.9098 Z" fill="#8f6252" />
  <path id="path145" d="M 1493.4933,3254.2452 1508.8933,3297.2568 1330.0169,3286.3216 Z" fill="#593821" />
  <path id="path146" d="M 1497.2198,3425.5934 1601.7454,3473.8824 1460.208,3503.3017 Z" fill="#b99a88" />
  <path id="path147" d="M 1594.8149,3321.9098 1601.7454,3473.8824 1497.2198,3425.5934 Z" fill="#ad9882" />
  <path id="path148" d="M 1403.9476,3405.6562 1508.8933,3297.2568 1497.2198,3425.5934 Z" fill="#5e3d23" />
  <path id="path149" d="M 1497.2198,3425.5934 1460.208,3503.3017 1403.9476,3405.6562 Z" fill="#673d28" />
  <path id="path150" d="M 3048.86,3332.0851 3050.3106,3500.5288 2909.845,3448.2048 Z" fill="#8e6252" />
  <path id="path151" d="M 3048.86,3332.0851 3192.5046,3342.7022 3185.2001,3437.6754 Z" fill="#a7927b" />
  <path id="path152" d="M 3048.86,3332.0851 3185.2001,3437.6754 3050.3106,3500.5288 Z" fill="#ac9781" />
  <path id="path153" d="M 3658.8049,3334.9773 3800.5856,3442.0759 3683.8504,3506.7142 Z" fill="#654035" />
  <path id="path154" d="M 3658.8049,3334.9773 3683.8504,3506.7142 3564.5595,3385.966 Z" fill="#9f8671" />
  <path id="path155" d="M 3373.8376,3343.4938 3307.4804,3455.029 3192.5046,3342.7022 Z" fill="#5c3720" />
  <path id="path156" d="M 3192.5046,3342.7022 3307.4804,3455.029 3185.2001,3437.6754 Z" fill="#53331e" />
  <path id="path157" d="M 3373.8376,3343.4938 3564.5595,3385.966 3435.84,3448.9517 Z" fill="#523623" />
  <path id="path158" d="M 3373.8376,3343.4938 3435.84,3448.9517 3307.4804,3455.029 Z" fill="#57402d" />
  <path id="path159" d="M 1131.5503,3318.4026 1245.0189,3405.4265 1146.0828,3502.0299 Z" fill="#684124" />
  <path id="path160" d="M 1131.5503,3318.4026 1083.2794,3487.4543 931.9183,3458.3235 Z" fill="#b1927e" />
  <path id="path161" d="M 1131.5503,3318.4026 1146.0828,3502.0299 1083.2794,3487.4543 Z" fill="#a89385" />
  <path id="path162" d="M 1083.2794,3487.4543 1146.0828,3502.0299 1079.501,3981.9917 Z" fill="#d9ae96" />
  <path id="path163" d="M 1146.0828,3502.0299 1301.2698,3519.6957 1079.501,3981.9917 Z" fill="#e2af97" />
  <path id="path164" d="M 3564.5595,3385.966 3553.9991,3468.8722 3435.84,3448.9517 Z" fill="#61381c" />
  <path id="path165" d="M 3564.5595,3385.966 3683.8504,3506.7142 3553.9991,3468.8722 Z" fill="#a69183" />
  <path id="path166" d="M 803.6031,3381.8161 349.46,3817.3594 308.0714,3518.826 Z" fill="#cba186" />
  <path id="path167" d="M 803.6031,3381.8161 931.9183,3458.3235 373.6288,3979.8123 Z" fill="#cc9781" />
  <path id="path168" d="M 1403.9476,3405.6562 1301.2698,3519.6957 1245.0189,3405.4265 Z" fill="#774e32" />
  <path id="path169" d="M 1403.9476,3405.6562 1460.208,3503.3017 1301.2698,3519.6957 Z" fill="#7a4b34" />
  <path id="path170" d="M 1245.0189,3405.4265 1301.2698,3519.6957 1146.0828,3502.0299 Z" fill="#603c23" />
  <path id="path171" d="M 1746.885,3432.6193 2155.3055,3564.4437 2138.3111,3942.0115 Z" fill="#cc9375" />
  <path id="path172" d="M 1601.7454,3473.8824 1746.885,3432.6193 2138.3111,3942.0115 Z" fill="#ce977c" />
  <path id="path173" d="M 2138.3111,3942.0115 1508.8111,4070.0552 1601.7454,3473.8824 Z" fill="#ddab8f" />
  <path id="path174" d="M 3185.2001,3437.6754 3307.4804,3455.029 3204.7949,3531.1035 Z" fill="#673d27" />
  <path id="path175" d="M 3185.2001,3437.6754 3204.7949,3531.1035 3050.3106,3500.5288 Z" fill="#b99b88" />
  <path id="path176" d="M 3913.1474,4130.8929 4339.9466,3663.5052 4303.8005,3977.0568 Z" fill="#cc9578" />
  <path id="path177" d="M 3913.1474,4130.8929 3683.8504,3506.7142 3800.5856,3442.0759 Z" fill="#d49f88" />
  <path id="path178" d="M 3435.84,3448.9517 3359.4395,3561.3959 3307.4804,3455.029 Z" fill="#774e33" />
  <path id="path179" d="M 3435.84,3448.9517 3553.9991,3468.8722 3537.9696,3550.1859 Z" fill="#674830" />
  <path id="path180" d="M 2909.845,3448.2048 3050.3106,3500.5288 2609.5784,3971.2022 Z" fill="#ce967a" />
  <path id="path181" d="M 3435.84,3448.9517 3537.9696,3550.1859 3359.4395,3561.3959 Z" fill="#674024" />
  <path id="path182" d="M 2909.845,3448.2048 2609.5784,3971.2022 2586.4838,3579.6351 Z" fill="#c28d6f" />
  <path id="path183" d="M 3307.4804,3455.029 3359.4395,3561.3959 3204.7949,3531.1035 Z" fill="#774b34" />
  <path id="path184" d="M 3553.9991,3468.8722 3683.8504,3506.7142 3537.9696,3550.1859 Z" fill="#bca493" />
  <path id="path185" d="M 1508.8111,4070.0552 1460.208,3503.3017 1601.7454,3473.8824 Z" fill="#ddaa91" />
  <path id="path186" d="M 3050.3106,3500.5288 3214.0815,4065.0365 2609.5784,3971.2022 Z" fill="#dca98d" />
  <path id="path187" d="M 3050.3106,3500.5288 3204.7949,3531.1035 3214.0815,4065.0365 Z" fill="#e5b19a" />
  <path id="path188" d="M 1301.2698,3519.6957 1508.8111,4070.0552 1079.501,3981.9917 Z" fill="#e3b198" />
  <path id="path189" d="M 4616.0689,3509.4801 4555.0609,3833.8194 4339.9466,3663.5052 Z" fill="#866056" />
  <path id="path190" d="M 3683.8504,3506.7142 3634.9763,4015.0153 3537.9696,3550.1859 Z" fill="#dcaf99" />
  <path id="path191" d="M 3683.8504,3506.7142 3913.1474,4130.8929 3634.9763,4015.0153 Z" fill="#e1b293" />
  <path id="path192" d="M 931.9183,3458.3235 1079.501,3981.9917 770.299,4195.354 Z" fill="#e1af93" />
  <path id="path193" d="M 1460.208,3503.3017 1301.2698,3519.6957 1508.8111,4070.0552 Z" fill="#e2af96" />
  <path id="path194" d="M 308.0714,3518.826 349.46,3817.3594 47.6405,3566.9057 Z" fill="#b48875" />
  <path id="path195" d="M 3537.9696,3550.1859 3634.9763,4015.0153 3359.4395,3561.3959 Z" fill="#e1b39e" />
  <path id="path196" d="M 3634.9763,4015.0153 3359.4395,3561.3959 3214.0815,4065.0365 Z" fill="#e0af97" />
  <path id="path197" d="M 1083.2794,3487.4543 1079.501,3981.9917 931.9183,3458.3235 Z" fill="#dbad94" />
  <path id="path198" d="M 2155.3055,3564.4437 2586.4838,3579.6351 2138.3111,3942.0115 Z" fill="#f3c1a5" />
  <path id="path199" d="M 47.6405,3566.9057 280.6058,3262.4978 308.0714,3518.826 Z" fill="#9a685b" />
  <path id="path200" d="M 47.6405,3566.9057 349.46,3817.3594 101.6243,3837.3517 Z" fill="#9e6b5e" />
  <path id="path201" d="M 349.46,3817.3594 212.9803,4095.5365 101.6243,3837.3517 Z" fill="#99685b" />
  <path id="path202" d="M 2586.4838,3579.6351 2609.5784,3971.2022 2138.3111,3942.0115 Z" fill="#efb8a0" />
  <path id="path203" d="M 4339.9466,3663.5052 4555.0609,3833.8194 4303.8005,3977.0568 Z" fill="#a27064" />
  <path id="path204" d="M 4555.0609,3833.8194 4444.3656,4076.3045 4303.8005,3977.0568 Z" fill="#8a5544" />
  <path id="path205" d="M 373.6288,3979.8123 770.299,4195.354 444.4883,4447.8832 Z" fill="#b18069" />
  <path id="path206" d="M 373.6288,3979.8123 444.4883,4447.8832 212.9803,4095.5365 Z" fill="#8d5f50" />
  <path id="path207" d="M 349.46,3817.3594 373.6288,3979.8123 212.9803,4095.5365 Z" fill="#9d6e5a" />
  <path id="path208" d="M 2138.3111,3942.0115 2609.5784,3971.2022 2399.9916,4251.6464 Z" fill="#f1b49d" />
  <path id="path209" d="M 2138.3111,3942.0115 2399.9916,4251.6464 2001.9955,4282.1149 Z" fill="#e7a68e" />
  <path id="path210" d="M 2138.3111,3942.0115 2001.9955,4282.1149 1508.8111,4070.0552 Z" fill="#e1a589" />
  <path id="path211" d="M 2609.5784,3971.2022 3214.0815,4065.0365 2787.3456,4300.4283 Z" fill="#e1a78a" />
  <path id="path212" d="M 2609.5784,3971.2022 2787.3456,4300.4283 2399.9916,4251.6464 Z" fill="#e1a188" />
  <path id="path213" d="M 4303.8005,3977.0568 4444.3656,4076.3045 4252.7811,4334.2157 Z" fill="#a36b55" />
  <path id="path214" d="M 4303.8005,3977.0568 4252.7811,4334.2157 3913.1474,4130.8929 Z" fill="#b58268" />
  <path id="path215" d="M 803.6031,3381.8161 373.6288,3979.8123 349.46,3817.3594 Z" fill="#ce9f82" />
  <path id="path216" d="M 1508.8111,4070.0552 2001.9955,4282.1149 1809.0905,4557.6691 Z" fill="#e1a184" />
  <path id="path217" d="M 1079.501,3981.9917 1101.7628,4620.0887 770.299,4195.354 Z" fill="#e1a787" />
  <path id="path218" d="M 373.6288,3979.8123 770.299,4195.354 931.9183,3458.3235 Z" fill="#d5a083" />
  <path id="path219" d="M 770.299,4195.354 444.4883,4447.8832 1101.7628,4620.0887 Z" fill="#a67557" />
  <path id="path220" d="M 1508.8111,4070.0552 1101.7628,4620.0887 1079.501,3981.9917 Z" fill="#ebb191" />
  <path id="path221" d="M 3634.9763,4015.0153 3564.872,4605.1498 3214.0815,4065.0365 Z" fill="#ebb192" />
  <path id="path222" d="M 1508.8111,4070.0552 1809.0905,4557.6691 1101.7628,4620.0887 Z" fill="#f1b89d" />
  <path id="path223" d="M 3214.0815,4065.0365 3204.7949,3531.1035 3359.4395,3561.3959 Z" fill="#e5b396" />
  <path id="path224" d="M 3634.9763,4015.0153 3913.1474,4130.8929 3564.872,4605.1498 Z" fill="#e4ae94" />
  <path id="path225" d="M 3214.0815,4065.0365 2983.7073,4589.5729 2787.3456,4300.4283 Z" fill="#e5ab8f" />
  <path id="path226" d="M 3214.0815,4065.0365 3564.872,4605.1498 2983.7073,4589.5729 Z" fill="#f0b69b" />
  <path id="path227" d="M 2399.9916,4251.6464 2787.3456,4300.4283 2602.6495,4597.2833 Z" fill="#e6a894" />
  <path id="path228" d="M 2399.9916,4251.6464 2193.9619,4602.2812 2001.9955,4282.1149 Z" fill="#efb39c" />
  <path id="path229" d="M 2399.9916,4251.6464 2602.6495,4597.2833 2193.9619,4602.2812 Z" fill="#f3c0a9" />
  <path id="path230" d="M 2001.9955,4282.1149 2193.9619,4602.2812 1809.0905,4557.6691 Z" fill="#d79c83" />
  <path id="path231" d="M 2787.3456,4300.4283 2983.7073,4589.5729 2602.6495,4597.2833 Z" fill="#d6947b" />
  <path id="path232" d="M 4252.7811,4334.2157 3963.7409,4623.218 3564.872,4605.1498 Z" fill="#956c50" />
  <path id="path233" d="M 4252.7811,4334.2157 4213.551,4691.5869 3963.7409,4623.218 Z" fill="#2e1d12" />
  <path id="path234" d="M 444.4883,4447.8832 1101.7628,4620.0887 636.8231,4661.0752 Z" fill="#956d50" />
  <path id="path235" d="M 444.4883,4447.8832 636.8231,4661.0752 492.5586,4827.6508 Z" fill="#201b16" />
  <path id="path236" d="M 3564.872,4605.1498 3963.7409,4623.218 3884.2217,4884.4471 Z" fill="#946b4e" />
  <path id="path237" d="M 3564.872,4605.1498 3884.2217,4884.4471 3816.2932,5115.458 Z" fill="#986d58" />
  <path id="path238" d="M 3800.5856,3442.0759 4339.9466,3663.5052 3913.1474,4130.8929 Z" fill="#d19c83" />
  <path id="path239" d="M 3913.1474,4130.8929 4252.7811,4334.2157 3564.872,4605.1498 Z" fill="#a3755c" />
  <path id="path240" d="M 3564.872,4605.1498 3319.1688,5195.7095 2983.7073,4589.5729 Z" fill="#e2a386" />
  <path id="path241" d="M 3564.872,4605.1498 3816.2932,5115.458 3319.1688,5195.7095 Z" fill="#926b58" />
  <path id="path242" d="M 1101.7628,4620.0887 845.1194,5133.3177 778.9066,4852.5606 Z" fill="#8b634b" />
  <path id="path243" d="M 1101.7628,4620.0887 778.9066,4852.5606 636.8231,4661.0752 Z" fill="#90674d" />
  <path id="path244" d="M 1101.7628,4620.0887 1327.7844,5268.4735 845.1194,5133.3177 Z" fill="#7e5b49" />
  <path id="path245" d="M 1809.0905,4557.6691 1327.7844,5268.4735 1101.7628,4620.0887 Z" fill="#e2a586" />
  <path id="path246" d="M 2193.9619,4602.2812 1984.1512,4831.3121 1809.0905,4557.6691 Z" fill="#d0937c" />
  <path id="path247" d="M 1809.0905,4557.6691 1984.1512,4831.3121 1327.7844,5268.4735 Z" fill="#cb9276" />
  <path id="path248" d="M 2983.7073,4589.5729 3319.1688,5195.7095 2801.408,4805.258 Z" fill="#d79b7e" />
  <path id="path249" d="M 2983.7073,4589.5729 2801.408,4805.258 2602.6495,4597.2833 Z" fill="#cc8f76" />
  <path id="path250" d="M 2602.6495,4597.2833 2521.0195,4903.6755 2193.9619,4602.2812 Z" fill="#e0a68e" />
  <path id="path251" d="M 2602.6495,4597.2833 2801.408,4805.258 2521.0195,4903.6755 Z" fill="#b6775d" />
  <path id="path252" d="M 2193.9619,4602.2812 2264.9757,4902.7995 1984.1512,4831.3121 Z" fill="#cb8e75" />
  <path id="path253" d="M 2193.9619,4602.2812 2521.0195,4903.6755 2264.9757,4902.7995 Z" fill="#d59984" />
  <path id="path254" d="M 3963.7409,4623.218 4213.551,4691.5869 3884.2217,4884.4471 Z" fill="#453429" />
  <path id="path255" d="M 492.5586,4827.6508 636.8231,4661.0752 778.9066,4852.5606 Z" fill="#39291e" />
  <path id="path256" d="M 778.9066,4852.5606 845.1194,5133.3177 492.5586,4827.6508 Z" fill="#36261c" />
  <path id="path257" d="M 4213.551,4691.5869 4143.2423,5250.1194 3884.2217,4884.4471 Z" fill="#1f1610" />
  <path id="path258" d="M 2801.408,4805.258 3319.1688,5195.7095 2764.906,5314.7545 Z" fill="#745a4a" />
  <path id="path259" d="M 2801.408,4805.258 2764.906,5314.7545 2521.0195,4903.6755 Z" fill="#63493d" />
  <path id="path260" d="M 3884.2217,4884.4471 4143.2423,5250.1194 3816.2932,5115.458 Z" fill="#372c21" />
  <path id="path261" d="M 492.5586,4827.6508 845.1194,5133.3177 581.5817,5308.802 Z" fill="#1a1510" />
  <path id="path262" d="M 1984.1512,4831.3121 2264.9757,4902.7995 2058.4387,5312.7861 Z" fill="#63493c" />
  <path id="path263" d="M 1327.7844,5268.4735 1984.1512,4831.3121 2058.4387,5312.7861 Z" fill="#6f5546" />
  <path id="path264" d="M 2058.4387,5312.7861 2264.9757,4902.7995 2399.9916,5185.0522 Z" fill="#6d5244" />
  <path id="path265" d="M 2521.0195,4903.6755 2399.9916,5185.0522 2264.9757,4902.7995 Z" fill="#99735f" />
  <path id="path266" d="M 2521.0195,4903.6755 2764.906,5314.7545 2399.9916,5185.0522 Z" fill="#745848" />
  <path id="path267" d="M 3816.2932,5115.458 4143.2423,5250.1194 3702.7731,5426.8651 Z" fill="#392a23" />
  <path id="path268" d="M 3816.2932,5115.458 3702.7731,5426.8651 3319.1688,5195.7095 Z" fill="#725747" />
  <path id="path269" d="M 845.1194,5133.3177 1327.7844,5268.4735 1006.7183,5482.9006 Z" fill="#6d5340" />
  <path id="path270" d="M 845.1194,5133.3177 1006.7183,5482.9006 581.5817,5308.802 Z" fill="#37261e" />
  <path id="path271" d="M 2399.9916,5185.0522 2764.906,5314.7545 2399.9916,5426.8848 Z" fill="#8c6357" />
  <path id="path272" d="M 2399.9916,5185.0522 2399.9916,5426.8848 2058.4387,5312.7861 Z" fill="#8c6154" />
  <path id="path273" d="M 3319.1688,5195.7095 3702.7731,5426.8651 3163.8341,5513.3491 Z" fill="#6f5343" />
  <path id="path274" d="M 3319.1688,5195.7095 3163.8341,5513.3491 2764.906,5314.7545 Z" fill="#77594a" />
  <path id="path275" d="M 1327.7844,5268.4735 2058.4387,5312.7861 1609.8079,5516.4816 Z" fill="#7c594b" />
  <path id="path276" d="M 1327.7844,5268.4735 1609.8079,5516.4816 1180.9745,5794.1823 Z" fill="#6d4b3b" />
  <path id="path277" d="M 1327.7844,5268.4735 1180.9745,5794.1823 1006.7183,5482.9006 Z" fill="#6b4f3d" />
  <path id="path278" d="M 581.5817,5308.802 1006.7183,5482.9006 812.9455,5782.8618 Z" fill="#1e1612" />
  <path id="path279" d="M 2058.4387,5312.7861 2399.9916,5426.8848 2126.9959,5622.2706 Z" fill="#b95c51" />
  <path id="path280" d="M 2058.4387,5312.7861 2126.9959,5622.2706 1609.8079,5516.4816 Z" fill="#b56257" />
  <path id="path281" d="M 2608.7914,5625.2182 2764.906,5314.7545 3163.8341,5513.3491 Z" fill="#b46056" />
  <path id="path282" d="M 2608.7914,5625.2182 2126.9959,5622.2706 2399.9916,5426.8848 Z" fill="#c16258" />
  <path id="path283" d="M 2399.9916,5426.8848 2764.906,5314.7545 2608.7914,5625.2182 Z" fill="#b25b50" />
  <path id="path284" d="M 3702.7731,5426.8651 4143.2423,5250.1194 3979.283,5668.0808 Z" fill="#1f1615" />
  <path id="path285" d="M 3702.7731,5426.8651 3979.283,5668.0808 3527.5664,5793.384 Z" fill="#382c21" />
  <path id="path286" d="M 3702.7731,5426.8651 3527.5664,5793.384 3163.8341,5513.3491 Z" fill="#614839" />
  <path id="path287" d="M 1006.7183,5482.9006 1180.9745,5794.1823 812.9455,5782.8618 Z" fill="#36281e" />
  <path id="path288" d="M 3163.8341,5513.3491 3527.5664,5793.384 3279.5948,6009.5245 Z" fill="#644736" />
  <path id="path289" d="M 3163.8341,5513.3491 3279.5948,6009.5245 2795.3767,5860.5138 Z" fill="#6a4737" />
  <path id="path290" d="M 3163.8341,5513.3491 2795.3767,5860.5138 2608.7914,5625.2182 Z" fill="#c36358" />
  <path id="path291" d="M 1609.8079,5516.4816 2126.9959,5622.2706 2034.0998,5854.4978 Z" fill="#c1645a" />
  <path id="path292" d="M 1609.8079,5516.4816 2034.0998,5854.4978 1458.0127,6016.7331 Z" fill="#7b5145" />
  <path id="path293" d="M 1609.8079,5516.4816 1458.0127,6016.7331 1180.9745,5794.1823 Z" fill="#724f3e" />
  <path id="path294" d="M 2126.9959,5622.2706 2399.9916,5898.3378 2034.0998,5854.4978 Z" fill="#d26e68" />
  <path id="path295" d="M 2126.9959,5622.2706 2608.7914,5625.2182 2399.9916,5898.3378 Z" fill="#cf6660" />
  <path id="path296" d="M 2608.7914,5625.2182 2795.3767,5860.5138 2399.9916,5898.3378 Z" fill="#cc6e66" />
  <path id="path297" d="M 812.9455,5782.8618 1180.9745,5794.1823 1039.1843,6138.4257 Z" fill="#211812" />
  <path id="path298" d="M 3527.5664,5793.384 3979.283,5668.0808 3716.8179,6112.3156 Z" fill="#241f17" />
  <path id="path299" d="M 3527.5664,5793.384 3716.8179,6112.3156 3279.5948,6009.5245 Z" fill="#3e3027" />
  <path id="path300" d="M 1180.9745,5794.1823 1458.0127,6016.7331 1039.1843,6138.4257 Z" fill="#382f26" />
  <path id="path301" d="M 3279.5948,6009.5245 2974.4454,6291.7616 2795.3767,5860.5138 Z" fill="#59483a" />
  <path id="path302" d="M 2034.0998,5854.4978 2399.9916,5898.3378 2175.7865,6220.0285 Z" fill="#694b3f" />
  <path id="path303" d="M 2795.3767,5860.5138 2974.4454,6291.7616 2596.1967,6220.5222 Z" fill="#59463b" />
  <path id="path304" d="M 2034.0998,5854.4978 1785.3064,6260.9164 1458.0127,6016.7331 Z" fill="#634d41" />
  <path id="path305" d="M 2034.0998,5854.4978 2175.7865,6220.0285 1785.3064,6260.9164 Z" fill="#604a3e" />
  <path id="path306" d="M 2795.3767,5860.5138 2596.1967,6220.5222 2399.9916,5898.3378 Z" fill="#634739" />
  <path id="path307" d="M 2399.9916,5898.3378 2596.1967,6220.5222 2175.7865,6220.0285 Z" fill="#543e34" />
  <path id="path308" d="M 3279.5948,6009.5245 3716.8179,6112.3156 3341.1271,6201.3107 Z" fill="#31281c" />
  <path id="path309" d="M 3279.5948,6009.5245 3341.1271,6201.3107 2974.4454,6291.7616 Z" fill="#3e3126" />
  <path id="path310" d="M 1458.0127,6016.7331 1785.3064,6260.9164 1433.5027,6292.8356 Z" fill="#413329" />
  <path id="path311" d="M 2175.7865,6220.0285 2156.7294,6520.9528 1785.3064,6260.9164 Z" fill="#43342d" />
  <path id="path312" d="M 2620.1248,6524.1582 2596.1967,6220.5222 2974.4454,6291.7616 Z" fill="#3e312a" />
  <path id="path313" d="M 2620.1248,6524.1582 2156.7294,6520.9528 2175.7865,6220.0285 Z" fill="#3c3029" />
  <path id="path314" d="M 2175.7865,6220.0285 2596.1967,6220.5222 2620.1248,6524.1582 Z" fill="#45342e" />
  <path id="path315" d="M 3716.8179,6112.3156 3321.3235,6468.3206 3341.1271,6201.3107 Z" fill="#1f1714" />
  <path id="path316" d="M 3341.1271,6201.3107 3321.3235,6468.3206 2974.4454,6291.7616 Z" fill="#302822" />
  <path id="path317" d="M 2974.4454,6291.7616 3321.3235,6468.3206 2928.7255,6568.7545 Z" fill="#322a24" />
  <path id="path318" d="M 2974.4454,6291.7616 2928.7255,6568.7545 2620.1248,6524.1582 Z" fill="#342821" />
  <path id="path319" d="M 1039.1843,6138.4257 1458.0127,6016.7331 1433.5027,6292.8356 Z" fill="#342b24" />
  <path id="path320" d="M 1433.5027,6292.8356 1785.3064,6260.9164 1830.6216,6567.2715 Z" fill="#382e27" />
  <path id="path321" d="M 1541.9519,6534.8492 1433.5027,6292.8356 1830.6216,6567.2715 Z" fill="#2e2b23" />
  <path id="path322" d="M 1039.1843,6138.4257 1433.5027,6292.8356 1541.9519,6534.8492 Z" fill="#241e19" />
  <path id="path323" d="M 1785.3064,6260.9164 2156.7294,6520.9528 1830.6216,6567.2715 Z" fill="#3f3327" />
  <path id="path324" d="M 2620.1248,6524.1582 2399.9916,6696.4959 2156.7294,6520.9528 Z" fill="#3c2e23" />
  <path id="path325" d="M 2156.7294,6520.9528 2399.9916,6696.4959 2179.067,6787.0602 Z" fill="#27231e" />
  <path id="path326" d="M 2156.7294,6520.9528 2179.067,6787.0602 1830.6216,6567.2715 Z" fill="#2d231d" />
  <path id="path327" d="M 2928.7255,6568.7545 2598.974,6787.0602 2620.1248,6524.1582 Z" fill="#322621" />
  <path id="path328" d="M 2620.1248,6524.1582 2598.974,6787.0602 2399.9916,6696.4959 Z" fill="#24201b" />
  <path id="path329" d="M 3321.3235,6468.3206 2972.9847,6690.6883 2928.7255,6568.7545 Z" fill="#241f18" />
  <path id="path330" d="M 2928.7255,6568.7545 2972.9847,6690.6883 2598.974,6787.0602 Z" fill="#0f0e08" />
  <path id="path331" d="M 1830.6216,6567.2715 1814.7183,6691.718 1541.9519,6534.8492 Z" fill="#271f1a" />
  <path id="path332" d="M 1814.7183,6691.718 1830.6216,6567.2715 2179.067,6787.0602 Z" fill="#0e0e0a" />
  <path id="path333" d="M 2179.067,6787.0602 2399.9916,6696.4959 2598.974,6787.0602 Z" fill="#0c0b08" />
</svg>
