<?xml version="1.0" encoding="UTF-8" standalone="no"?>
<svg clip-rule="evenodd" fill-rule="evenodd" image-rendering="optimizeQuality" shape-rendering="geometricPrecision" text-rendering="geometricPrecision" version="1.1" viewBox="0 0 4800 6912" id="svg331" sodipodi:docname="SXF Poly.svg" inkscape:version="1.4.4 (dcaf3e7, 2026-05-05)"
   xmlns:inkscape="http://www.inkscape.org/namespaces/inkscape"
   xmlns:sodipodi="http://sodipodi.sourceforge.net/DTD/sodipodi-0.dtd"
   xmlns="http://www.w3.org/2000/svg"
   xmlns:svg="http://www.w3.org/2000/svg">
   <defs id="defs331" />
   <sodipodi:namedview id="namedview331" pagecolor="#ffffff" bordercolor="#000000" borderopacity="0.25" inkscape:showpageshadow="2" inkscape:pageopacity="0.0" inkscape:pagecheckerboard="0" inkscape:deskcolor="#d1d1d1" inkscape:zoom="0.10440942" inkscape:cx="2073.5677" inkscape:cy="3615.5741" inkscape:window-width="1728" inkscape:window-height="980" inkscape:window-x="0" inkscape:window-y="33" inkscape:window-maximized="1" inkscape:current-layer="svg331" />
   <path d="M 1747.6508,27.25424 2567.9995,0 2476.1652,678.21128 Z" fill="#18110b" id="path1" style="stroke-width:1.08349" />
   <path d="M 1747.6508,27.25424 1632.858,669.82536 973.21919,222.751 Z" fill="#18110b" id="path2" style="stroke-width:1.08349" />
   <g fill="#060000" id="g8" transform="matrix(1.11993,0,0,1.04824,-2.79981,-0.52412)">
      <path d="m 2213.5,647.5 82,-647 742.5,49 z" id="path3" />
      <path d="m 2213.5,647.5 824.5,-598 -149.5,462 z" id="path4" />
      <path d="m 4062.5,809 74,465.5 -641,-26 z" id="path5" />
      <path d="m 4062.5,809 -567,439.5 3,-572 z" id="path6" />
      <path d="m 2213.5,647.5 675,-136 610,165 z" id="path7" />
      <path d="m 2213.5,647.5 1285,29 -543,354 z" id="path8" />
   </g>
   <path d="M 2476.1652,678.21128 1632.858,669.82536 1747.6508,27.25424 Z" fill="#060600" id="path9" style="stroke-width:1.08349" />
   <path d="m 3399.5475,51.36376 698.2764,272.5424 -182.5486,384.70408 z" id="path10" style="stroke-width:1.08349" />
   <path d="M 3399.5475,51.36376 3915.2753,708.61024 3232.118,535.65064 Z" fill="#110b0b" id="path11" style="stroke-width:1.08349" />
   <g fill="#251f19" id="g14" transform="matrix(1.11993,0,0,1.04824,-2.79981,-0.52412)">
      <path d="m 354.5,706.5 517,-493.5 589,426.5 z" id="path12" />
      <path d="m 354.5,706.5 1106,-67 -612,525 z" id="path13" />
      <path d="m 848.5,1164.5 -720,-8 226,-450 z" id="path14" />
   </g>
   <path d="m 4097.8239,323.90616 449.0919,523.59588 -631.6405,-138.8918 z" fill="#110b0b" id="path15" style="stroke-width:1.08349" />
   <path d="m 1632.858,669.82536 843.3072,8.38592 -760.4324,657.24652 z" fill="#372a25" id="path16" style="stroke-width:1.08349" />
   <path d="m 1632.858,669.82536 82.8748,665.63244 -768.272,-115.3064 z" fill="#3d312a" id="path17" style="stroke-width:1.08349" />
   <path d="m 2476.1652,678.21128 830.9881,401.47592 -798.5101,274.6389 z" fill="#251912" id="path18" style="stroke-width:1.08349" />
   <path d="m 2476.1652,678.21128 32.478,676.11482 -792.9104,-18.8683 z" fill="#3d3131" id="path19" style="stroke-width:1.08349" />
   <path d="m 3911.9155,1308.2035 -604.7622,-228.5163 608.122,-371.07696 z" fill="#190c06" id="path20" style="stroke-width:1.08349" />
   <path d="m 4546.9158,847.50204 223.986,863.22566 -141.1112,-375.2699 z" id="path21" style="stroke-width:1.08349" />
   <path d="m 3307.1533,1079.6872 604.7622,228.5163 -109.7531,421.3925 z" fill="#7a533d" id="path22" style="stroke-width:1.08349" />
   <path d="M 3307.1533,1079.6872 3024.9309,1655.171 2508.6432,1354.3261 Z" fill="#7c5643" id="path23" style="stroke-width:1.08349" />
   <path d="m 3307.1533,1079.6872 495.0091,649.9088 -777.2315,-74.425 z" fill="#a77c63" id="path24" style="stroke-width:1.08349" />
   <path d="M 141.11119,1211.7654 498.92883,2061.8881 5.599665,1965.45 Z" fill="#2b1f19" id="path25" style="stroke-width:1.08349" />
   <path d="m 141.11119,1211.7654 721.23493,595.4004 -363.41729,254.7223 z" fill="#4b3620" id="path26" style="stroke-width:1.08349" />
   <path d="m 141.11119,1211.7654 806.34961,8.386 -85.11468,587.0144 z" fill="#382b1f" id="path27" style="stroke-width:1.08349" />
   <path d="m 947.4608,1220.1514 768.272,115.3064 -451.3318,622.6545 z" fill="#4b3225" id="path28" style="stroke-width:1.08349" />
   <path d="M 947.4608,1220.1514 1264.401,1958.1123 862.34612,1807.1658 Z" fill="#5d3e31" id="path29" style="stroke-width:1.08349" />
   <path d="m 4629.7906,1335.4578 -425.5801,301.6321 -292.295,-328.8864 z" fill="#25180c" id="path30" style="stroke-width:1.08349" />
   <path d="m 3911.9155,1308.2035 292.295,328.8864 -402.0481,92.5062 z" fill="#88634a" id="path31" style="stroke-width:1.08349" />
   <path d="m 1715.7328,1335.4578 792.9104,18.8683 -594.6828,416.1513 z" fill="#573e2b" id="path32" style="stroke-width:1.08349" />
   <path d="m 4629.7906,1335.4578 141.1112,375.2699 -566.6913,-73.6379 z" fill="#0c0600" id="path33" style="stroke-width:1.08349" />
   <path d="m 1715.7328,1335.4578 198.2276,435.0196 -649.5594,187.6349 z" fill="#8e6950" id="path34" style="stroke-width:1.08349" />
   <path d="m 2508.6432,1354.3261 516.2877,300.8449 -535.3265,375.2699 z" fill="#d7a98e" id="path35" style="stroke-width:1.08349" />
   <path d="m 2508.6432,1354.3261 -19.0388,676.1148 -575.644,-259.9635 z" fill="#c59a80" id="path36" style="stroke-width:1.08349" />
   <path d="m 4204.206,1637.0888 566.6913,73.6379 -608.122,330.1956 z" fill="#574332" id="path37" style="stroke-width:1.08349" />
   <path d="M 4204.206,1637.0888 4162.7755,2040.9222 3802.158,1729.595 Z" fill="#b58365" id="path38" style="stroke-width:1.08349" />
   <path d="m 2489.6044,2030.4409 535.3265,-375.2699 301.8212,579.6767 z" fill="#ecba9b" id="path39" style="stroke-width:1.08349" />
   <path d="m 3326.7521,2234.8477 -571.7243,270.4459 -265.4234,-474.8527 z" fill="#ecba9b" id="path40" style="stroke-width:1.08349" />
   <path d="m 3024.9309,1655.171 777.2315,74.425 -475.4103,505.2517 z" fill="#e6ba9b" id="path41" style="stroke-width:1.08349" />
   <path d="m 4770.9018,1710.7277 17.1108,310.5264 -625.2323,19.669 z" fill="#31251e" id="path42" style="stroke-width:1.08349" />
   <path d="m 3802.1624,1729.596 360.6174,311.3273 -368.4569,364.7875 z" fill="#cda188" id="path43" style="stroke-width:1.08349" />
   <path d="m 3802.1624,1729.596 -7.8395,676.1148 -467.5708,-170.8631 z" fill="#e0af96" id="path44" style="stroke-width:1.08349" />
   <path d="M 1913.9604,1770.4774 1665.3359,2125.8307 1264.401,1958.1123 Z" fill="#d3a78e" id="path45" style="stroke-width:1.08349" />
   <path d="m 1913.9604,1770.4774 575.644,259.9635 -439.5725,463.3221 z" fill="#f2c09b" id="path46" style="stroke-width:1.08349" />
   <path d="m 1913.9604,1770.4774 136.0715,723.2856 -384.696,-367.9323 z" fill="#edbb9c" id="path47" style="stroke-width:1.08349" />
   <path d="M 862.34612,1807.1658 1264.401,1958.1123 844.42724,2337.5752 Z" fill="#cda182" id="path48" style="stroke-width:1.08349" />
   <path d="M 862.34612,1807.1658 844.42724,2337.5752 498.92883,2061.8881 Z" fill="#c0957c" id="path49" style="stroke-width:1.08349" />
   <path d="m 1264.401,1958.1123 400.9349,167.7184 -388.6157,310.2791 z" fill="#e1b495" id="path50" style="stroke-width:1.08349" />
   <path d="m 1264.401,1958.1123 12.3192,477.9975 -432.29296,-98.5346 z" fill="#d9a88f" id="path51" style="stroke-width:1.08349" />
   <path d="M 15.679035,2643.6613 5.599665,1965.45 498.92883,2061.8881 Z" fill="#372418" id="path52" style="stroke-width:1.08349" />
   <path d="M 498.92883,2061.8881 342.6986,2678.7773 15.679035,2643.6613 Z" fill="#372418" id="path53" style="stroke-width:1.08349" />
   <path d="m 2755.0278,2505.2936 -704.9959,-11.5306 439.5725,-463.3221 z" fill="#f2bb9b" id="path54" style="stroke-width:1.08349" />
   <path d="m 4162.7798,2040.9233 625.2323,-19.669 -372.1281,508.149 z" fill="#513e31" id="path55" style="stroke-width:1.08349" />
   <path d="m 4162.7798,2040.9233 253.1042,488.4798 -621.5611,-123.6923 z" fill="#b48870" id="path56" style="stroke-width:1.08349" />
   <path d="M 498.92883,2061.8881 844.42724,2337.5752 342.6986,2678.7773 Z" fill="#a78263" id="path57" style="stroke-width:1.08349" />
   <path d="m 4788.0143,2021.2583 4.168,407.518 -376.2965,100.631 z" fill="#2a2418" id="path58" style="stroke-width:1.08349" />
   <path d="m 1665.3359,2125.8307 384.696,367.9323 -773.3117,-57.6532 z" fill="#f2c0a7" id="path59" style="stroke-width:1.08349" />
   <path d="m 3095.4865,2972.8086 231.2656,-737.9609 467.5708,170.8631 z" fill="#e0ae9b" id="path60" style="stroke-width:1.08349" />
   <path d="m 3794.3229,2405.7108 -251.9843,473.8045 -446.8521,93.2933 z" fill="#e0ae9b" id="path61" style="stroke-width:1.08349" />
   <path d="m 3326.7521,2234.8477 -231.2656,737.9609 -340.4587,-467.515 z" fill="#ecbaa1" id="path62" style="stroke-width:1.08349" />
   <path d="m 844.42724,2337.5752 432.29296,98.5346 -361.73737,415.103 z" fill="#d3a788" id="path63" style="stroke-width:1.08349" />
   <path d="M 844.42724,2337.5752 914.98283,2851.2128 342.6986,2678.7773 Z" fill="#c08e75" id="path64" style="stroke-width:1.08349" />
   <path d="m 3794.3229,2405.7108 621.5611,123.6923 -461.4112,423.489 z" fill="#c08f7c" id="path65" style="stroke-width:1.08349" />
   <path d="m 3794.3229,2405.7108 160.1499,547.1813 -412.1342,-73.3768 z" fill="#c79b88" id="path66" style="stroke-width:1.08349" />
   <path d="m 4792.1805,2428.7721 -30.7981,238.9987 -345.4984,-138.3677 z" fill="#241811" id="path67" style="stroke-width:1.08349" />
   <path d="m 1276.7202,2436.1098 99.6738,422.4407 -461.41117,-7.3377 z" fill="#d3a78e" id="path68" style="stroke-width:1.08349" />
   <path d="m 1276.7202,2436.1098 773.3117,57.6532 -673.6379,364.7875 z" fill="#e7b59c" id="path69" style="stroke-width:1.08349" />
   <path d="m 2050.0319,2493.763 704.9959,11.5306 -299.3606,358.1123 z" fill="#f2b49b" id="path70" style="stroke-width:1.08349" />
   <path d="M 2050.0319,2493.763 1772.8492,3016.8347 1376.394,2858.5505 Z" fill="#e0ae95" id="path71" style="stroke-width:1.08349" />
   <path d="m 2050.0319,2493.763 405.6353,369.6429 -682.818,153.4288 z" fill="#ecb49b" id="path72" style="stroke-width:1.08349" />
   <path d="m 2755.0278,2505.2936 340.4587,467.515 -639.8193,-109.4027 z" fill="#ecb4a1" id="path73" style="stroke-width:1.08349" />
   <path d="m 4415.884,2529.4031 345.4984,138.3677 -263.7435,250.5294 z" fill="#1f1206" id="path74" style="stroke-width:1.08349" />
   <path d="m 4415.884,2529.4031 81.7549,388.8971 -543.1661,34.5919 z" fill="#b18669" id="path75" style="stroke-width:1.08349" />
   <path d="m 15.679035,2643.6613 327.019565,35.116 -189.26817,360.0705 z" fill="#1e1105" id="path76" style="stroke-width:1.08349" />
   <path d="m 4761.3824,2667.7708 -33.0379,188.6832 -230.7056,61.8462 z" fill="#120b05" id="path77" style="stroke-width:1.08349" />
   <path d="m 342.6986,2678.7773 6.71958,324.4303 -195.98775,35.6402 z" fill="#190c06" id="path78" style="stroke-width:1.08349" />
   <path d="m 342.6986,2678.7773 572.28423,172.4355 -366.21711,190.7797 z" fill="#956f57" id="path79" style="stroke-width:1.08349" />
   <path d="m 342.6986,2678.7773 206.06712,363.2152 -199.34754,-38.7849 z" fill="#957556" id="path80" style="stroke-width:1.08349" />
   <path d="m 2455.6705,2863.4038 639.8194,109.4027 -407.6545,274.6389 z" fill="#cd9e88" id="path81" style="stroke-width:1.08349" />
   <path d="m 914.98283,2851.2128 461.41117,7.3377 -256.3554,336.1391 z" fill="#6a5144" id="path82" style="stroke-width:1.08349" />
   <path d="m 914.98283,2851.2128 76.15524,396.2347 -442.37235,-205.455 z" fill="#705744" id="path83" style="stroke-width:1.08349" />
   <path d="m 2455.6705,2863.4038 232.1649,384.0416 -473.7304,-1.0482 z" fill="#e3a492" id="path84" style="stroke-width:1.08349" />
   <path d="m 4728.3445,2856.454 -77.2752,197.0691 -153.4304,-135.2229 z" fill="#1e110b" id="path85" style="stroke-width:1.08349" />
   <path d="m 914.98283,2851.2128 205.05577,343.4768 -128.90053,52.7575 z" fill="#7c5c4a" id="path86" style="stroke-width:1.08349" />
   <path d="m 1376.394,2858.5505 396.4552,158.2842 -325.2086,152.5881 z" fill="#5d3e32" id="path87" style="stroke-width:1.08349" />
   <path d="M 2455.6705,2863.4038 2214.105,3246.3972 1772.8526,3016.8326 Z" fill="#d1a18b" id="path88" style="stroke-width:1.08349" />
   <path d="m 1376.394,2858.5505 71.2462,310.8723 -212.3969,16.7015 z" fill="#51382b" id="path89" style="stroke-width:1.08349" />
   <path d="m 1376.394,2858.5505 -141.1515,327.5739 -115.205,8.5656 z" fill="#5c4337" id="path90" style="stroke-width:1.08349" />
   <path d="m 3542.3386,2879.5153 -66.0759,322.8579 -380.7762,-229.5646 z" fill="#644b3e" id="path91" style="stroke-width:1.08349" />
   <path d="m 3542.3386,2879.5153 412.1342,73.3768 -295.6615,295.6037 z" fill="#765d4b" id="path92" style="stroke-width:1.08349" />
   <path d="m 3542.3386,2879.5153 116.4727,368.9805 -182.5486,-46.1226 z" fill="#574438" id="path93" style="stroke-width:1.08349" />
   <path d="M 4497.6389,2918.3002 4255.734,3091.7839 3954.4728,2952.8921 Z" fill="#a06c4f" id="path94" style="stroke-width:1.08349" />
   <path d="m 4497.6389,2918.3002 153.4304,135.2229 -120.9524,148.8501 z" fill="#25120c" id="path95" style="stroke-width:1.08349" />
   <path d="m 4497.6389,2918.3002 32.478,284.073 -274.3829,-110.5893 z" fill="#88634a" id="path96" style="stroke-width:1.08349" />
   <path d="m 3954.4728,2952.8921 301.2612,138.8918 -315.8202,327.575 z" fill="#8f6f5c" id="path97" style="stroke-width:1.08349" />
   <path d="m 3954.4728,2952.8921 -14.559,466.4668 -147.8308,-107.9687 z" fill="#907260" id="path98" style="stroke-width:1.08349" />
   <path d="m 3954.4728,2952.8921 -162.3898,358.4981 -133.2717,-62.8944 z" fill="#826351" id="path99" style="stroke-width:1.08349" />
   <path d="m 3095.4865,2972.8086 62.7161,335.4368 -470.3706,-60.7979 z" fill="#644432" id="path100" style="stroke-width:1.08349" />
   <path d="m 3095.4865,2972.8086 238.5138,261.7414 -175.7977,73.6958 z" fill="#4b3225" id="path101" style="stroke-width:1.08349" />
   <path d="m 3095.4865,2972.8086 380.7762,229.5646 -142.2624,32.1765 z" fill="#443225" id="path102" style="stroke-width:1.08349" />
   <path d="m 349.41818,3003.2076 -78.3951,230.6128 -117.59265,-194.9726 z" fill="#3e2519" id="path103" style="stroke-width:1.08349" />
   <path d="m 349.41818,3003.2076 199.34754,38.7849 -277.74264,191.8279 z" fill="#8b684a" id="path104" style="stroke-width:1.08349" />
   <path d="m 1772.8492,3016.8347 441.2524,229.5646 -413.2541,163.5254 z" fill="#764b32" id="path105" style="stroke-width:1.08349" />
   <path d="m 1772.8492,3016.8347 27.9983,393.09 -176.949,-124.7405 z" fill="#6f4432" id="path106" style="stroke-width:1.08349" />
   <path d="m 1772.8492,3016.8347 -148.9507,268.3495 -176.2579,-115.7614 z" fill="#4b2b1f" id="path107" style="stroke-width:1.08349" />
   <path d="m 548.76572,3041.9925 442.37235,205.455 -172.46922,112.1617 z" fill="#7c5a4b" id="path108" style="stroke-width:1.08349" />
   <path d="M 548.76572,3041.9925 818.66885,3359.6092 271.02308,3233.8204 Z" fill="#8a6851" id="path109" style="stroke-width:1.08349" />
   <path d="M 153.43043,3038.8478 271.02308,3233.8204 1.5e-5,3227.531 Z" fill="#a67c63" id="path110" style="stroke-width:1.08349" />
   <path d="m 4530.1169,3202.3732 120.9524,-148.8501 148.9507,128.9335 z" fill="#654231" id="path111" style="stroke-width:1.08349" />
   <path d="m 4255.734,3091.7839 274.3829,110.5893 -590.2031,216.9857 z" fill="#9c765d" id="path112" style="stroke-width:1.08349" />
   <path d="m 4800.02,3182.4566 -6.0174,309.4583 -263.8857,-289.5417 z" fill="#8f6257" id="path113" style="stroke-width:1.08349" />
   <path d="m 1120.042,3194.6896 40.9023,99.7154 -169.80265,-46.9579 z" fill="#6c5449" id="path114" style="stroke-width:1.08349" />
   <path d="m 1120.042,3194.6896 115.205,-8.5656 -74.3025,108.2811 z" fill="#604234" id="path115" style="stroke-width:1.08349" />
   <path d="m 1235.238,3186.1255 212.397,-16.7015 -82.557,91.7401 z" fill="#4b2b1f" id="path116" style="stroke-width:1.08349" />
   <path d="m 1235.238,3186.1255 129.8402,75.0386 -65.8058,122.2908 z" fill="#5d3525" id="path117" style="stroke-width:1.08349" />
   <path d="m 1447.6439,3169.427 88.1292,57.8807 -170.6863,33.8594 z" fill="#513826" id="path118" style="stroke-width:1.08349" />
   <path d="m 1535.7712,3227.3003 88.1291,57.8806 -72.0006,-12.9527 z" fill="#684d3f" id="path119" style="stroke-width:1.08349" />
   <path d="m 1235.238,3186.1255 64.0344,197.3301 -138.3372,-89.0488 z" fill="#5e391f" id="path120" style="stroke-width:1.08349" />
   <path d="m 3333.998,3234.5542 142.2625,-32.1765 21.2787,118.4511 z" fill="#4b2b1f" id="path121" style="stroke-width:1.08349" />
   <path d="m 3497.5414,3320.8243 -189.2682,-1.0482 25.7274,-85.2264 z" fill="#5d3525" id="path122" style="stroke-width:1.08349" />
   <path d="m 3497.5414,3320.8243 -21.2787,-118.4511 182.5486,46.1226 z" fill="#513826" id="path123" style="stroke-width:1.08349" />
   <path d="m 4530.1169,3202.3732 263.8857,289.5417 -289.6441,160.1533 z" fill="#83574a" id="path124" style="stroke-width:1.08349" />
   <path d="m 4530.1169,3202.3732 -25.7584,449.695 -564.4447,-232.7093 z" fill="#a07659" id="path125" style="stroke-width:1.08349" />
   <path d="m 1.5e-5,3227.531 271.023065,6.2894 -243.024815,317.6167 z" fill="#86615a" id="path126" style="stroke-width:1.08349" />
   <path d="m 271.02308,3233.8204 547.64577,125.7888 -518.52759,141.5124 z" fill="#a37868" id="path127" style="stroke-width:1.08349" />
   <path d="m 3333.998,3234.5542 -25.7273,85.2264 -150.0707,-11.5307 z" fill="#836659" id="path128" style="stroke-width:1.08349" />
   <path d="m 991.13807,3247.4475 -38.07762,188.6832 -134.3916,-76.5215 z" fill="#643e32" id="path129" style="stroke-width:1.08349" />
   <path d="m 2214.1016,3246.3993 473.7304,1.0482 -461.4111,300.8449 z" fill="#e6ae9b" id="path130" style="stroke-width:1.08349" />
   <path d="m 991.13807,3247.4475 169.80263,46.9579 -207.88026,141.7252 z" fill="#8a7c70" id="path131" style="stroke-width:1.08349" />
   <path d="m 2687.832,3247.4475 324.7797,178.7249 -337.0989,137.8436 z" fill="#96644b" id="path132" style="stroke-width:1.08349" />
   <path d="m 2687.832,3247.4475 470.3706,60.7979 -145.5909,117.927 z" fill="#8e5c43" id="path133" style="stroke-width:1.08349" />
   <path d="m 3658.8113,3248.4958 133.2717,62.8944 -98.5538,53.4602 z" fill="#937163" id="path134" style="stroke-width:1.08349" />
   <path d="m 2214.1016,3246.3993 12.3193,301.8931 -425.5734,-138.3677 z" fill="#a27551" id="path135" style="stroke-width:1.08349" />
   <path d="m 3658.8113,3248.4958 34.7179,116.3546 -195.9878,-44.0261 z" fill="#4b2b19" id="path136" style="stroke-width:1.08349" />
   <path d="m 2687.832,3247.4475 -12.3192,316.5685 -449.0919,-15.7236 z" fill="#f2baa7" id="path137" style="stroke-width:1.08349" />
   <path d="m 1365.0827,3261.1585 186.8144,11.0685 -109.428,112.5359 z" fill="#513926" id="path138" style="stroke-width:1.08349" />
   <path d="m 1365.0827,3261.1585 77.3866,123.6043 -143.192,-1.3127 z" fill="#544535" id="path139" style="stroke-width:1.08349" />
   <path d="m 1623.8985,3285.1842 -83.9671,116.428 11.9665,-129.3801 z" fill="#948773" id="path140" style="stroke-width:1.08349" />
   <path d="m 1800.8475,3409.9247 -195.868,54.801 18.9192,-179.5415 z" clip-rule="evenodd" fill="#835d51" fill-rule="evenodd" image-rendering="optimizeQuality" shape-rendering="geometricPrecision" id="path141" style="stroke-width:1.08349" />
   <path d="m 1535.7712,3227.3003 16.1285,44.9279 -186.8144,-11.0684 z" clip-rule="evenodd" fill="#573820" fill-rule="evenodd" image-rendering="optimizeQuality" shape-rendering="geometricPrecision" id="path142" style="stroke-width:1.08349" />
   <path d="m 1539.9262,3401.6122 65.0478,63.1136 -103.4723,17.8796 z" fill="#ae9184" id="path143" style="stroke-width:1.08349" />
   <path d="m 1623.8967,3285.1791 -18.9192,179.5415 -65.0478,-63.1136 z" fill="#9c8f7c" id="path144" style="clip-rule:evenodd;fill-rule:evenodd;stroke-width:1.08349;image-rendering:optimizeQuality;shape-rendering:geometricPrecision" />
   <path d="m 1442.4699,3384.767 109.428,-112.5359 -11.9665,129.38 z" fill="#5c3e22" id="path145" style="stroke-width:1.08349" />
   <path d="m 1539.9262,3401.6122 -38.4245,80.9932 -59.0371,-97.8383 z" fill="#6a3e2b" id="path146" style="stroke-width:1.08349" />
   <path d="m 3158.2026,3308.2454 1.1199,171.9114 -146.7108,-53.9844 z" fill="#835d51" id="path147" style="stroke-width:1.08349" />
   <path d="m 3158.2026,3308.2454 150.0706,11.5307 -7.8395,94.3416 z" fill="#948773" id="path148" style="stroke-width:1.08349" />
   <path d="m 3158.2026,3308.2454 142.2311,105.8723 -141.1112,66.0391 z" fill="#9c8f7c" id="path149" style="stroke-width:1.08349" />
   <path d="m 3792.083,3311.3902 147.8308,107.9687 -122.0724,67.0873 z" fill="#64443e" id="path150" style="stroke-width:1.08349" />
   <path d="m 3792.083,3311.3902 25.7584,175.056 -124.3122,-121.5958 z" fill="#8a7c70" id="path151" style="stroke-width:1.08349" />
   <path d="m 3497.5414,3320.8243 -69.4357,111.1135 -119.8325,-112.1617 z" fill="#5e391f" id="path152" style="stroke-width:1.08349" />
   <path d="m 3308.2732,3319.7761 119.8325,112.1617 -127.672,-17.8201 z" fill="#4f301b" id="path153" style="stroke-width:1.08349" />
   <path d="m 3497.5414,3320.8243 195.9878,44.0261 -134.3916,60.7979 z" fill="#513926" id="path154" style="stroke-width:1.08349" />
   <path d="m 3497.5414,3320.8243 61.5962,104.824 -131.0319,6.2895 z" fill="#544535" id="path155" style="stroke-width:1.08349" />
   <path d="m 1160.9419,3294.4087 138.3371,89.0488 -122.7152,97.6998 z" fill="#6a4425" id="path156" style="stroke-width:1.08349" />
   <path d="m 1160.9419,3294.4087 -49.9104,171.6451 -157.96949,-29.9204 z" fill="#a28677" id="path157" style="stroke-width:1.08349" />
   <path d="m 1160.9419,3294.4087 15.6216,186.7481 -65.532,-15.103 z" fill="#95877f" id="path158" style="stroke-width:1.08349" />
   <path d="m 1111.0296,3466.0507 65.5321,15.1031 -69.7549,502.6342 z" fill="#d9a795" id="path159" style="clip-rule:evenodd;fill-rule:evenodd;stroke-width:1.08349;image-rendering:optimizeQuality;shape-rendering:geometricPrecision" />
   <path d="m 1176.5611,3481.1544 159.1286,18.3085 -228.8835,484.3256 z" fill="#d7a290" id="path160" style="clip-rule:evenodd;fill-rule:evenodd;stroke-width:1.08349;image-rendering:optimizeQuality;shape-rendering:geometricPrecision" />
   <path d="m 3693.5292,3364.8504 -11.1993,81.7627 -123.1923,-20.9648 z" fill="#643819" id="path161" style="stroke-width:1.08349" />
   <path d="m 3693.5292,3364.8504 124.3122,121.5958 -135.5115,-39.8331 z" fill="#95877f" id="path162" style="stroke-width:1.08349" />
   <path d="M 818.66885,3359.6092 343.81853,3812.4489 300.14126,3501.1216 Z" fill="#c49c83" id="path163" style="stroke-width:1.08349" />
   <path d="m 818.66885,3359.6092 134.3916,76.5215 -457.32118,512.3389 z" fill="#c4957b" id="path164" style="stroke-width:1.08349" />
   <path d="m 1442.4699,3384.767 -106.7784,114.6952 -36.4141,-116.0087 z" fill="#7c563d" id="path165" style="stroke-width:1.08349" />
   <path d="m 1442.4699,3384.767 59.0371,97.8383 -165.8158,16.8573 z" fill="#7d513e" id="path166" style="stroke-width:1.08349" />
   <path d="m 1299.2756,3383.4567 36.4141,116.0087 -159.1286,-18.3085 z" fill="#5f3e23" id="path167" style="stroke-width:1.08349" />
   <path d="m 1800.8475,3409.9247 425.5734,138.3677 -17.359,394.1382 z" fill="#c18970" id="path168" style="stroke-width:1.08349" />
   <path d="m 1604.9829,3464.7267 195.8679,-54.8009 408.2145,532.5059 z" fill="#d9a18e" id="path169" style="stroke-width:1.08349" />
   <path d="m 2209.0619,3942.4306 -726.2746,125.7888 122.1922,-603.4937 z" fill="#d9a18e" id="path170" style="stroke-width:1.08349" />
   <path d="m 3300.4337,3414.1177 127.672,17.8201 -107.5132,79.6662 z" fill="#6a3e2b" id="path171" style="stroke-width:1.08349" />
   <path d="m 3300.4337,3414.1177 20.1588,97.4863 -161.27,-31.4472 z" fill="#ae9184" id="path172" style="stroke-width:1.08349" />
   <path d="m 3939.9138,3419.3589 564.4447,232.7093 -38.0776,327.0508 z" fill="#ae836f" id="path173" style="stroke-width:1.08349" />
   <path d="m 4054.0682,4055.4099 -236.2212,-568.9658 122.0724,-67.0873 z" fill="#c79b82" id="path174" style="stroke-width:1.08349" />
   <path d="m 3559.1376,3425.6483 -77.2752,117.4029 -53.7567,-111.1134 z" fill="#7c563d" id="path175" style="stroke-width:1.08349" />
   <path d="m 3559.1376,3425.6483 123.1923,20.9648 -16.799,84.9075 z" fill="#695039" id="path176" style="stroke-width:1.08349" />
   <path d="m 3012.6117,3426.1724 146.7108,53.9844 -460.2912,492.6728 z" fill="#c08f7c" id="path177" style="stroke-width:1.08349" />
   <path d="m 3559.1376,3425.6483 106.3933,105.8723 -183.6685,11.5306 z" fill="#6a4425" id="path178" style="stroke-width:1.08349" />
   <path d="m 3012.6117,3426.1724 -313.5804,546.6572 -23.5185,-408.8136 z" fill="#b5836a" id="path179" style="stroke-width:1.08349" />
   <path d="m 3428.1057,3431.9378 53.7567,111.1134 -161.2699,-31.4472 z" fill="#7d513e" id="path180" style="stroke-width:1.08349" />
   <path d="m 3682.3299,3446.6131 135.5115,39.8331 -152.3105,45.0744 z" fill="#b09c90" id="path181" style="stroke-width:1.08349" />
   <path d="m 1482.7873,4068.2194 18.7197,-585.6139 103.4723,-17.8796 z" fill="#d9a795" id="path182" style="stroke-width:1.08349" />
   <path d="m 3159.3225,3480.1568 71.4198,569.622 -531.7114,-76.949 z" fill="#d4a289" id="path183" style="stroke-width:1.08349" />
   <path d="m 3159.3225,3480.1568 161.27,31.4472 -89.8502,538.1748 z" fill="#e4ad9b" id="path184" style="stroke-width:1.08349" />
   <path d="m 1335.7113,3499.4646 147.096,568.7572 -375.9795,-84.4312 z" fill="#e0a795" id="path185" style="clip-rule:evenodd;fill-rule:evenodd;stroke-width:1.08349;image-rendering:optimizeQuality;shape-rendering:geometricPrecision" />
   <path d="m 4794.006,3491.9181 -64.8992,337.9777 -224.7453,-177.8234 z" fill="#855f55" id="path186" style="stroke-width:1.08349" />
   <path d="m 3817.8414,3486.4462 -175.9959,645.2599 23.6859,-600.1855 z" fill="#d3a28f" id="path187" style="stroke-width:1.08349" />
   <path d="m 3817.8414,3486.4462 236.2212,568.9658 -412.2182,76.2935 z" fill="#dbac8d" id="path188" style="stroke-width:1.08349" />
   <path d="m 953.06045,3436.1307 153.74735,547.6572 -611.06853,-35.3191 z" fill="#daa68d" id="path189" style="stroke-width:1.08349" />
   <path d="m 1501.5126,3482.6097 -165.8158,16.8573 147.0961,568.7572 z" fill="#dca692" id="path190" style="stroke-width:1.08349" />
   <path d="M 300.14126,3501.1216 343.81853,3812.4489 27.998265,3551.4371 Z" fill="#b48875" id="path191" style="stroke-width:1.08349" />
   <path d="m 3665.5309,3531.5206 -23.6858,600.1855 -159.9832,-588.6549 z" fill="#d9a795" id="path192" style="stroke-width:1.08349" />
   <path d="M 3641.8476,4131.7009 3481.8645,3543.046 3230.7448,4049.7736 Z" fill="#d9a795" id="path193" style="clip-rule:evenodd;fill-rule:evenodd;stroke-width:1.08349;image-rendering:optimizeQuality;shape-rendering:geometricPrecision" />
   <path d="m 1111.0454,3466.0537 -4.2226,517.7372 -153.74732,-547.6572 z" fill="#dca692" id="path194" style="clip-rule:evenodd;fill-rule:evenodd;stroke-width:1.08349;image-rendering:optimizeQuality;shape-rendering:geometricPrecision" />
   <path d="m 2226.4209,3548.2924 449.0919,15.7236 -466.4509,378.4146 z" fill="#f2c0a7" id="path195" style="stroke-width:1.08349" />
   <g fill="#9b695c" id="g198" transform="matrix(1.11993,0,0,1.04824,-2.79981,-0.52412)">
      <path d="m 27.5,3388.5 217,-303 26,255 z" id="path196" />
      <path d="m 27.5,3388.5 282,249 -231.383,20.0899 z" id="path197" />
      <path d="M 309.5,3637.5 182.191,3914.474 78.117,3657.59 Z" id="path198" />
   </g>
   <path d="m 2675.5128,3564.016 23.5185,408.8136 -489.9694,-30.399 z" fill="#ecb4a1" id="path199" style="stroke-width:1.08349" />
   <path d="m 4504.3585,3652.0682 224.7453,177.8234 -262.8229,149.2274 z" fill="#a16f63" id="path200" style="stroke-width:1.08349" />
   <path d="m 4729.106,3829.8916 -115.8422,252.9036 -146.9807,-103.677 z" fill="#8b5645" id="path201" style="stroke-width:1.08349" />
   <path d="m 343.81853,3812.4489 440.12689,394.0617 -341.57305,263.1848 z" fill="#ad876e" id="path202" style="stroke-width:1.08349" />
   <path d="m 343.81853,3812.4489 98.55384,657.2465 -241.13101,-366.9113 z" fill="#8b5e4f" id="path203" style="stroke-width:1.08349" />
   <path d="m 2209.0619,3942.4306 489.9694,30.399 -218.3863,292.459 z" fill="#edaf9c" id="path204" style="stroke-width:1.08349" />
   <path d="m 2209.0619,3942.4306 271.5831,322.858 -413.3248,31.9999 z" fill="#e1a28f" id="path205" style="stroke-width:1.08349" />
   <path d="m 2209.0619,3942.4306 -141.7417,354.8576 -584.5329,-229.0688 z" fill="#d9a188" id="path206" style="stroke-width:1.08349" />
   <path d="m 2699.0313,3972.8296 531.7114,76.949 -346.8401,265.6093 z" fill="#daa289" id="path207" style="stroke-width:1.08349" />
   <path d="m 2883.8994,4315.384 346.8401,-265.6094 411.1027,81.9273 z" fill="#d89d82" id="path208" style="clip-rule:evenodd;fill-rule:evenodd;stroke-width:1.08349;image-rendering:optimizeQuality;shape-rendering:geometricPrecision" />
   <path d="m 2699.0313,3972.8296 184.8702,342.5585 -403.2565,-50.0992 z" fill="#da9c89" id="path209" style="stroke-width:1.08349" />
   <path d="m 4466.2809,3979.119 146.9807,103.6771 -199.6175,268.4479 z" fill="#97695a" id="path210" style="stroke-width:1.08349" />
   <path d="m 4466.2809,3979.119 -52.6368,372.1252 -359.5815,-295.8322 z" fill="#aa8878" id="path211" style="stroke-width:1.08349" />
   <path d="M 818.70715,3359.6095 495.77757,3948.4698 343.85682,3812.4492 Z" fill="#c79a80" id="path212" style="clip-rule:evenodd;fill-rule:evenodd;stroke-width:1.08349;image-rendering:optimizeQuality;shape-rendering:geometricPrecision" />
   <path d="m 1482.7873,4068.2194 584.5329,229.0688 -200.9893,286.3498 z" fill="#da9c83" id="path213" style="stroke-width:1.08349" />
   <path d="m 1106.8078,3983.7837 20.9236,664.6743 -343.78598,-441.9516 z" fill="#e0ae95" id="path214" style="stroke-width:1.08349" />
   <g clip-rule="evenodd" fill-rule="evenodd" shape-rendering="geometricPrecision" id="g217" transform="matrix(1.11993,0,0,1.04824,-2.79981,-0.52412)">
      <path d="m 445.152,3767.26 257.343,246.167 288.288,-212.473 z" fill="#dca488" image-rendering="optimizeQuality" id="path215" />
      <path d="m 702.495,4013.43 -304.995,251.073 611.966,170.54 z" fill="#987157" image-rendering="optimizeQuality" id="path216" />
      <path d="m 1326.5,3881.5 -317.034,553.54 -18.683,-634.086 z" fill="#e9b194" image-rendering="optimizeQuality" id="path217" />
   </g>
   <path d="m 1482.7873,4068.2194 383.5447,515.4196 -738.6006,64.8236 z" fill="#f2baa1" id="path218" style="stroke-width:1.08349" />
   <path d="m 3230.7405,4049.7809 89.8502,-538.1748 161.2699,31.4472 z" fill="#e0ae95" id="path219" style="stroke-width:1.08349" />
   <path d="m 3641.8444,4131.7009 412.2182,-76.2935 -297.3,562.0233 z" fill="#e0ae95" id="path220" style="stroke-width:1.08349" />
   <path d="M 3641.8444,4131.7009 3089.823,4616.5381 2883.9015,4315.3829 Z" fill="#e0a88f" id="path221" style="stroke-width:1.08349" />
   <path d="m 3641.8444,4131.7009 114.9182,485.7303 -666.9396,-0.8928 z" fill="#f2baa1" id="path222" style="stroke-width:1.08349" />
   <path d="m 2480.645,4265.2886 403.2565,50.0992 -191.5898,309.4468 z" fill="#e1a295" id="path223" style="stroke-width:1.08349" />
   <path d="m 2480.645,4265.2886 -213.9067,364.7875 -199.4181,-332.7879 z" fill="#ecae9c" id="path224" style="stroke-width:1.08349" />
   <path d="m 2480.645,4265.2886 211.6667,359.5463 -425.5734,5.2412 z" fill="#f2c0ae" id="path225" style="stroke-width:1.08349" />
   <path d="m 2067.3236,4297.2913 199.4181,332.7879 -400.4063,-46.4372 z" fill="#ce9683" id="path226" style="stroke-width:1.08349" />
   <path d="m 2883.8982,4315.3839 205.9215,301.1552 -397.5113,8.2916 z" fill="#ce8f7d" id="path227" style="stroke-width:1.08349" />
   <path d="m 4413.6441,4351.2442 -284.4622,301.8932 -372.4193,-35.7013 z" fill="#a37c61" id="path228" style="stroke-width:1.08349" />
   <path d="m 4413.6441,4351.2442 -37.9545,373.4471 -246.5078,-71.5537 z" fill="#321f12" id="path229" style="stroke-width:1.08349" />
   <path d="m 442.37237,4469.6954 685.35903,178.7668 -484.89156,43.4598 z" fill="#936f57" id="path230" style="stroke-width:1.08349" />
   <path d="m 442.37237,4469.6954 200.46747,222.2268 -151.19055,174.0079 z" fill="#241e18" id="path231" style="stroke-width:1.08349" />
   <path d="m 3756.7604,4617.4343 372.4193,35.7013 -114.2329,204.4068 z" fill="#9f7557" id="path232" style="stroke-width:1.08349" />
   <path d="m 3756.7604,4617.4343 258.1864,240.1078 -72.7954,257.867 z" fill="#926756" id="path233" style="stroke-width:1.08349" />
   <path d="m 3939.9118,3419.3571 526.3671,559.7601 -412.2182,76.2935 z" fill="#c29585" id="path234" style="clip-rule:evenodd;fill-rule:evenodd;stroke-width:1.08349;image-rendering:optimizeQuality;shape-rendering:geometricPrecision" />
   <path d="m 4054.0551,4055.4082 359.5815,295.8321 -656.8815,266.1922 z" clip-rule="evenodd" fill="#a07a68" fill-rule="evenodd" image-rendering="optimizeQuality" shape-rendering="geometricPrecision" id="path235" style="stroke-width:1.08349" />
   <path d="m 3756.7604,4617.4343 -315.2177,631.6254 -351.7219,-632.5185 z" fill="#e1a48a" id="path236" style="stroke-width:1.08349" />
   <path d="m 3756.7604,4617.4343 185.391,497.9748 -500.6087,133.6506 z" fill="#987260" id="path237" style="stroke-width:1.08349" />
   <path d="M 1127.7359,4648.4622 858.9908,5184.595 790.67507,4891.612 Z" fill="#987157" id="path238" style="stroke-width:1.08349" />
   <path d="M 1127.7359,4648.4622 790.67507,4891.612 642.84431,4691.9222 Z" fill="#916c52" id="path239" style="stroke-width:1.08349" />
   <path d="m 1127.7359,4648.4622 234.1035,676.597 -502.8486,-140.4642 z" fill="#876756" id="path240" style="stroke-width:1.08349" />
   <path d="m 1866.3298,4583.639 -504.4971,741.4202 -234.1035,-676.597 z" fill="#e2a98c" id="path241" style="stroke-width:1.08349" />
   <path d="M 2266.7383,4630.0761 2048.352,4869.0748 1866.332,4583.639 Z" fill="#c78e7d" id="path242" style="stroke-width:1.08349" />
   <path d="m 1866.3298,4583.639 182.0199,285.4358 -686.517,455.9844 z" fill="#c18f76" id="path243" style="stroke-width:1.08349" />
   <path d="m 3089.8197,4616.5433 351.7218,632.5185 -542.0461,-407.2412 z" fill="#d39b82" id="path244" style="stroke-width:1.08349" />
   <path d="m 3089.8197,4616.5433 -190.3243,225.2773 -207.187,-216.9857 z" fill="#c18976" id="path245" style="stroke-width:1.08349" />
   <path d="m 2692.3117,4624.8349 -85.1146,319.7132 -340.4588,-314.472 z" fill="#daa28f" id="path246" style="stroke-width:1.08349" />
   <path d="m 2692.3117,4624.8349 207.1871,216.9857 -292.3017,102.7275 z" fill="#ae705d" id="path247" style="stroke-width:1.08349" />
   <path d="m 2266.7383,4630.0761 73.9154,313.4237 -292.3017,-74.425 z" fill="#c08875" id="path248" style="stroke-width:1.08349" />
   <path d="m 2266.7383,4630.0761 340.4588,314.472 -266.5434,-1.0483 z" fill="#ce9688" id="path249" style="stroke-width:1.08349" />
   <path d="m 4129.1819,4653.1374 246.5078,71.5537 -360.7406,132.8529 z" fill="#4a372a" id="path250" style="stroke-width:1.08349" />
   <path d="M 491.64929,4865.9301 642.83984,4691.9222 790.6706,4891.612 Z" fill="#3e2b1f" id="path251" style="stroke-width:1.08349" />
   <path d="m 790.6706,4891.612 68.31573,292.983 -367.33704,-318.6649 z" fill="#3e2b1f" id="path252" style="stroke-width:1.08349" />
   <path d="m 4375.6897,4724.6902 -65.7787,372.0361 -294.9616,-239.1832 z" fill="#241912" id="path253" style="stroke-width:1.08349" />
   <path d="m 2899.4988,4841.8206 542.0461,407.2412 -579.0038,124.2164 z" fill="#836451" id="path254" style="stroke-width:1.08349" />
   <path d="m 2899.4988,4841.8206 -36.9577,531.4576 -255.344,-428.7301 z" fill="#6a4b3e" id="path255" style="stroke-width:1.08349" />
   <path d="m 4014.9491,4857.5442 294.9615,239.1832 -367.757,18.6838 z" fill="#382b1f" id="path256" style="stroke-width:1.08349" />
   <path d="M 491.64929,4865.9301 858.98633,5184.595 583.48355,5368.037 Z" fill="#1e1811" id="path257" style="stroke-width:1.08349" />
   <path d="m 2048.352,4869.0748 292.3017,74.425 -215.5865,427.682 z" fill="#6a4b3e" id="path258" style="stroke-width:1.08349" />
   <path d="m 1361.8349,5325.0592 686.5171,-455.9844 76.7152,502.107 z" fill="#7d5d4b" id="path259" style="stroke-width:1.08349" />
   <path d="m 2125.0672,5371.1818 215.5865,-427.682 139.9913,294.5555 z" fill="#7d5d4b" id="path260" style="stroke-width:1.08349" />
   <path d="M 2607.1971,4944.5481 2480.645,5238.0553 2340.6537,4943.4998 Z" fill="#9c7664" id="path261" style="stroke-width:1.08349" />
   <path d="m 2607.1971,4944.5481 255.344,428.7301 -381.8961,-135.2229 z" fill="#896451" id="path262" style="stroke-width:1.08349" />
   <path d="M 4309.9162,5096.7316 4208.0349,5510.2025 3942.159,5115.4154 Z" fill="#19120c" id="path263" style="stroke-width:1.08349" />
   <path d="m 3942.1536,5115.4112 265.8759,394.7871 -417.0664,-56.2054 z" fill="#2b1f19" id="path264" style="stroke-width:1.08349" />
   <path d="m 3942.1536,5115.4112 -151.1905,338.5815 -349.4182,-204.9309 z" fill="#82614e" id="path265" style="stroke-width:1.08349" />
   <path d="m 858.98633,5184.595 502.84857,140.4642 -334.8591,224.3234 z" fill="#7d5e46" id="path266" style="stroke-width:1.08349" />
   <path d="M 858.98633,5184.595 1026.9758,5549.3826 583.48355,5368.037 Z" fill="#321f19" id="path267" style="stroke-width:1.08349" />
   <path d="m 2480.645,5238.0553 381.8961,135.2229 -378.5363,117.4029 z" fill="#a27064" id="path268" style="stroke-width:1.08349" />
   <path d="m 2480.645,5238.0553 3.3598,252.6258 -358.9376,-119.4993 z" fill="#9c7064" id="path269" style="stroke-width:1.08349" />
   <path d="m 3441.5449,5249.0618 349.4182,204.9309 -511.808,126.8371 z" fill="#7b5d4a" id="path270" style="stroke-width:1.08349" />
   <path d="m 3441.5449,5249.0618 -162.3898,331.768 -416.614,-207.5516 z" fill="#826553" id="path271" style="stroke-width:1.08349" />
   <path d="m 1361.8349,5325.0592 763.2323,46.1226 -468.6907,212.7927 z" fill="#916d5d" id="path272" style="stroke-width:1.08349" />
   <path d="m 1361.8349,5325.0592 294.5416,258.9153 -447.972,290.3625 z" fill="#6d4c3b" id="path273" style="stroke-width:1.08349" />
   <path d="M 1361.8349,5325.0592 1208.4045,5874.337 1026.9758,5549.3826 Z" fill="#765843" id="path274" style="stroke-width:1.08349" />
   <path d="m 583.48355,5368.037 443.49225,181.3456 -202.7073,313.4237 z" fill="#120c0c" id="path275" style="stroke-width:1.08349" />
   <path d="m 2125.0672,5371.1818 358.9376,119.4993 -287.8221,203.3586 z" fill="#c8645d" id="path276" style="stroke-width:1.08349" />
   <path d="m 2125.0672,5371.1818 71.1155,322.8579 -539.8062,-110.0652 z" fill="#c8706a" id="path277" style="stroke-width:1.08349" />
   <path d="m 2700.1512,5697.1844 162.3899,-323.9062 416.614,207.5516 z" fill="#c86a64" id="path278" style="stroke-width:1.08349" />
   <path d="m 2700.1512,5697.1844 -503.9685,-3.1447 287.8221,-203.3586 z" fill="#c86a64" id="path279" style="stroke-width:1.08349" />
   <path d="m 2484.0048,5490.6811 378.5363,-117.4029 -162.3899,323.9062 z" fill="#c1645d" id="path280" style="stroke-width:1.08349" />
   <path d="m 2484.0048,5490.6811 378.5363,-117.4029 z" fill="#c8645d" id="path281" style="stroke-width:1.08349" />
   <path d="m 3790.9631,5453.9927 417.0664,56.2054 -224.5158,499.7358 z" fill="#120c0b" id="path282" style="stroke-width:1.08349" />
   <path d="m 3790.9631,5453.9927 192.5506,555.9414 -375.0992,-143.9831 z" fill="#1f1912" id="path283" style="stroke-width:1.08349" />
   <path d="M 3790.9631,5453.9927 3608.4145,5865.951 3279.1551,5580.8298 Z" fill="#6e5340" id="path284" style="stroke-width:1.08349" />
   <path d="m 1026.9758,5549.3826 181.4287,324.9544 -384.136,-11.5307 z" fill="#322519" id="path285" style="stroke-width:1.08349" />
   <path d="m 3279.1551,5580.8298 329.2594,285.1212 -169.4376,245.0314 z" fill="#6d4f3b" id="path286" style="stroke-width:1.08349" />
   <path d="m 3279.1551,5580.8298 159.8218,530.1526 -543.922,-167.9731 z" fill="#775340" id="path287" style="stroke-width:1.08349" />
   <path d="m 3279.1551,5580.8298 -384.1002,362.1795 -194.9037,-245.8249 z" fill="#da706a" id="path288" style="stroke-width:1.08349" />
   <path d="m 1656.3765,5583.9745 539.8062,110.0652 -97.0841,242.5355 z" fill="#d4706a" id="path289" style="stroke-width:1.08349" />
   <path d="m 1656.3765,5583.9745 442.7218,352.6007 -601.3487,169.9585 z" fill="#815b4a" id="path290" style="stroke-width:1.08349" />
   <path d="M 1656.3765,5583.9745 1497.7496,6106.5347 1208.4045,5874.337 Z" fill="#7c5844" id="path291" style="stroke-width:1.08349" />
   <path d="m 2196.1827,5694.0397 290.8571,288.723 -387.9415,-46.1871 z" fill="#e07676" id="path292" style="stroke-width:1.08349" />
   <path d="m 2196.1827,5694.0397 503.9685,3.1447 -213.1114,285.5783 z" fill="#d36a69" id="path293" style="stroke-width:1.08349" />
   <path d="m 2700.1512,5697.1844 194.9037,245.8249 -408.014,39.7529 z" fill="#da7070" id="path294" style="stroke-width:1.08349" />
   <path d="m 824.2685,5862.8063 384.136,11.5307 -147.8308,359.5463 z" fill="#19120c" id="path295" style="stroke-width:1.08349" />
   <path d="m 3608.4145,5865.951 375.0992,143.9831 -192.6738,266.4197 z" fill="#12120c" id="path296" style="stroke-width:1.08349" />
   <path d="m 3608.4145,5865.951 182.4254,410.4028 -351.863,-165.3714 z" fill="#3d2f25" id="path297" style="stroke-width:1.08349" />
   <path d="m 1208.4045,5874.337 289.3451,232.1977 -437.1759,127.3486 z" fill="#373125" id="path298" style="stroke-width:1.08349" />
   <path d="M 3438.9803,6110.9876 3130.0241,6369.231 2895.0583,5943.0145 Z" fill="#735c49" id="path299" style="stroke-width:1.08349" />
   <path d="m 2099.096,5936.571 387.9415,46.1871 -264.0593,369.9606 z" fill="#705144" id="path300" style="stroke-width:1.08349" />
   <path d="m 2895.0527,5943.0072 234.9658,426.2164 -448.2778,-20.5495 z" fill="#705240" id="path301" style="stroke-width:1.08349" />
   <path d="m 2099.096,5936.571 -321.7693,428.3381 -279.5793,-258.3786 z" fill="#76594a" id="path302" style="stroke-width:1.08349" />
   <path d="m 2099.096,5936.571 123.8822,416.1481 -445.6526,12.1898 z" fill="#6e5243" id="path303" style="stroke-width:1.08349" />
   <path d="m 2895.0527,5943.0072 -213.3131,405.6667 -194.7021,-365.9133 z" fill="#765744" id="path304" style="stroke-width:1.08349" />
   <path d="m 2487.0398,5982.7669 194.702,365.9133 -458.7603,4.0473 z" fill="#624238" id="path305" style="stroke-width:1.08349" />
   <path d="m 3438.9803,6110.9876 351.8629,165.3714 -377.2932,29.8576 z" fill="#383225" id="path306" style="stroke-width:1.08349" />
   <path d="m 3438.9803,6110.9876 -25.4301,195.2295 -283.5259,63.014 z" fill="#564230" id="path307" style="stroke-width:1.08349" />
   <path d="m 1497.7496,6106.5326 279.5793,258.3786 -305.023,30.0151 z" fill="#534231" id="path308" style="stroke-width:1.08349" />
   <path d="m 2222.9827,6352.7222 -11.1196,183.0532 -434.5328,-170.8632 z" fill="#564038" id="path309" style="stroke-width:1.08349" />
   <path d="m 2684.4722,6544.1623 -2.7301,-195.4863 448.2777,20.5496 z" fill="#58453a" id="path310" style="stroke-width:1.08349" />
   <path d="m 2684.4722,6544.1623 -472.6104,-8.3859 11.1195,-183.0531 z" fill="#514036" id="path311" style="stroke-width:1.08349" />
   <path d="m 2222.9827,6352.7222 458.7603,-4.0472 2.7301,195.4863 z" fill="#5f453c" id="path312" style="stroke-width:1.08349" />
   <path d="m 3790.8399,6276.358 -304.4978,318.124 -72.7954,-288.266 z" fill="#120c0c" id="path313" style="stroke-width:1.08349" />
   <path d="m 3413.5467,6306.2118 72.7954,288.266 -356.3214,-225.2521 z" fill="#2b251f" id="path314" style="stroke-width:1.08349" />
   <path d="m 3130.0252,6369.2215 356.3214,225.2521 -467.0108,48.2191 z" fill="#312a24" id="path315" style="stroke-width:1.08349" />
   <path d="m 3130.0252,6369.2215 -110.689,273.4712 -334.859,-98.5346 z" fill="#473528" id="path316" style="stroke-width:1.08349" />
   <g fill="#322a24" id="g320" transform="matrix(1.11993,0,0,1.04824,-2.79981,-0.52412)">
      <path d="m 949.5,5947.5 390.36,-121.488 -22.7194,275.122 z" id="path317" />
      <path d="m 1317.14,6101.13 272.359,-28.6338 98,302 z" id="path318" />
      <path d="m 1418.37,6342.27 -101.226,-241.133 370.359,273.366 z" id="path319" />
      <path d="m 949.5,5947.5 367.641,153.634 101.226,241.133 z" id="path320" />
   </g>
   <path d="m 1777.3289,6364.9133 434.5329,170.8631 -324.7797,145.7054 z" fill="#4e3d2d" id="path321" style="stroke-width:1.08349" />
   <path d="m 2684.4722,6544.1623 -250.8643,256.8188 -221.7461,-265.2047 z" fill="#563f2e" id="path322" style="stroke-width:1.08349" />
   <path d="m 2211.8618,6535.7764 221.7461,265.2047 -182.5732,111.0118 z" fill="#322b25" id="path323" style="stroke-width:1.08349" />
   <path d="m 2211.8618,6535.7764 39.1723,376.2165 -363.9526,-230.5111 z" fill="#44322b" id="path324" style="stroke-width:1.08349" />
   <path d="m 3019.3313,6642.6969 -343.4131,269.3012 8.5539,-367.8358 z" fill="#3d2b25" id="path325" style="stroke-width:1.08349" />
   <path d="m 2684.4722,6544.1623 -8.5539,367.8358 -242.3103,-111.017 z" fill="#2b251f" id="path326" style="stroke-width:1.08349" />
   <path d="m 3486.3421,6594.4778 -406.8683,216.9595 -60.1426,-168.7404 z" fill="#12120c" id="path327" style="stroke-width:1.08349" />
   <path d="m 3019.3313,6642.6969 60.1426,168.7404 -403.5556,100.5605 z" fill="#0c0c06" id="path328" style="stroke-width:1.08349" />
   <path d="m 1887.0821,6681.4818 -16.239,131.03 -285.17,-164.818 z" fill="#241e18" id="path329" style="stroke-width:1.08349" />
   <path d="m 1870.8431,6812.5118 16.239,-131.03 363.9526,230.5111 z" fill="#12120c" id="path330" style="stroke-width:1.08349" />
   <path d="m 2251.0369,6911.9897 182.5732,-111.0117 242.3103,111.017 z" fill="#12120c" id="path331" style="stroke-width:1.08349" />
</svg>
